<svg width="16" height="16" viewBox="0 0 16 16" fill="none" xmlns="http://www.w3.org/2000/svg">
<path fill-rule="evenodd" clip-rule="evenodd" d="M14.0023 6.66536C14.3705 6.66536 14.6689 6.36688 14.6689 5.9987V1.9987C14.6689 1.63051 14.3705 1.33203 14.0023 1.33203H9.99985C9.63165 1.33203 9.33318 1.6305 9.33318 1.9987C9.33318 2.36688 9.63165 2.66536 9.99985 2.66536H12.3929L6.65514 8.4031C6.39479 8.66343 6.39479 9.08556 6.65514 9.3459C6.91552 9.6063 7.33758 9.6063 7.59792 9.3459L13.3356 3.60828V5.9987C13.3356 6.36688 13.6341 6.66536 14.0023 6.66536ZM3.33325 3.33203C2.22869 3.33203 1.33325 4.22746 1.33325 5.33203V12.6654C1.33325 13.77 2.22869 14.6654 3.33325 14.6654H10.6666C11.7712 14.6654 12.6666 13.77 12.6666 12.6654V8.66536C12.6666 8.29716 12.3681 7.9987 11.9999 7.9987C11.6317 7.9987 11.3333 8.29716 11.3333 8.66536V12.6654C11.3333 13.0336 11.0348 13.332 10.6666 13.332H3.33325C2.96507 13.332 2.66659 13.0336 2.66659 12.6654V5.33203C2.66659 4.96384 2.96507 4.66536 3.33325 4.66536H7.33325C7.70145 4.66536 7.99992 4.36688 7.99992 3.9987C7.99992 3.63051 7.70145 3.33203 7.33325 3.33203H3.33325Z" fill="#44F1A6"/>
</svg>
