<svg width="375" height="202" viewBox="0 0 375 202" fill="none" xmlns="http://www.w3.org/2000/svg">
<path opacity="0.302" d="M128.381 34.9252C159.168 -18.2641 198.762 -11.2001 223.31 59.5519C247.858 130.302 306.26 157.631 365.407 109.402C387.456 87.9966 420.797 87.2578 434.694 143.03C437.999 161.762 439.455 172.672 439.059 175.758H-13C-13 157.783 -5.1909 139.425 10.4289 120.687C46.535 81.478 97.5944 88.1145 128.381 34.9252Z" fill="url(#paint0_linear_1560_1216)"/>
<path opacity="0.302" d="M230.123 191.627C230.123 191.627 125.189 191.627 73.1611 135.844C40.4722 101.347 6.10778 119.762 -6.24249 198.512C-6.25978 199.463 72.5276 199.463 230.123 198.512V191.627Z" fill="url(#paint1_linear_1560_1216)"/>
<path d="M317.667 15.7568H205.425C203.754 15.7568 202.15 16.4209 200.968 17.603C199.786 18.7851 199.122 20.3883 199.122 22.0601V193.697C199.122 195.369 199.786 196.972 200.968 198.154C202.15 199.336 203.754 200 205.425 200H317.667C319.339 200 320.942 199.336 322.124 198.154C323.306 196.972 323.97 195.369 323.97 193.697V22.0601C323.97 20.3883 323.306 18.7851 322.124 17.603C320.942 16.4209 319.339 15.7568 317.667 15.7568Z" fill="url(#paint2_linear_1560_1216)"/>
<path d="M327.364 15.7568H215.122C213.451 15.7568 211.847 16.4209 210.665 17.603C209.483 18.7851 208.819 20.3883 208.819 22.0601V193.697C208.819 195.369 209.483 196.972 210.665 198.154C211.847 199.336 213.451 200 215.122 200H327.364C329.036 200 330.639 199.336 331.821 198.154C333.003 196.972 333.667 195.369 333.667 193.697V22.0601C333.667 20.3883 333.003 18.7851 331.821 17.603C330.639 16.4209 329.036 15.7568 327.364 15.7568Z" fill="url(#paint3_linear_1560_1216)"/>
<path d="M316.339 41.2129H226.149C225.732 41.2129 225.332 41.3785 225.038 41.6733C224.743 41.9681 224.577 42.3679 224.577 42.7848V47.2741C224.577 47.6909 224.743 48.0908 225.038 48.3855C225.332 48.6803 225.732 48.8459 226.149 48.8459H316.339C316.756 48.8459 317.156 48.6803 317.45 48.3855C317.745 48.0908 317.911 47.6909 317.911 47.2741V42.7848C317.911 42.3679 317.745 41.9681 317.45 41.6733C317.156 41.3785 316.756 41.2129 316.339 41.2129ZM316.339 59.3948H226.149C225.732 59.3948 225.332 59.5604 225.038 59.8552C224.743 60.15 224.577 60.5498 224.577 60.9667V65.456C224.577 65.8729 224.743 66.2727 225.038 66.5675C225.332 66.8623 225.732 67.0279 226.149 67.0279H316.339C316.756 67.0279 317.156 66.8623 317.45 66.5675C317.745 66.2727 317.911 65.8729 317.911 65.456V60.9667C317.911 60.5498 317.745 60.15 317.45 59.8552C317.156 59.5604 316.756 59.3948 316.339 59.3948ZM270.278 77.5768H226.149C225.732 77.5768 225.332 77.7424 225.038 78.0372C224.743 78.332 224.577 78.7318 224.577 79.1487V83.638C224.577 84.0548 224.743 84.4547 225.038 84.7494C225.332 85.0442 225.732 85.2098 226.149 85.2098H270.278C270.695 85.2098 271.095 85.0442 271.39 84.7494C271.684 84.4547 271.85 84.0548 271.85 83.638V79.1487C271.85 78.7318 271.684 78.332 271.39 78.0372C271.095 77.7424 270.695 77.5768 270.278 77.5768Z" fill="#EBEBF2"/>
<path fill-rule="evenodd" clip-rule="evenodd" d="M336.003 191.751C339.295 194.112 341.596 195.292 342.904 195.292C344.865 195.292 345.925 197.328 344.101 198.428C342.277 199.527 336.434 197.943 334.937 197.943C333.441 197.943 329.588 198.571 331.064 193.595C332.048 190.277 332.952 188.865 333.776 189.359L336.003 190.058V191.751ZM308.64 191.751C305.348 194.112 303.047 195.292 301.739 195.292C299.778 195.292 298.717 197.328 300.542 198.428C302.366 199.527 308.209 197.943 309.706 197.943C311.202 197.943 315.055 198.571 313.579 193.595C312.595 190.277 311.691 188.865 310.867 189.359L308.64 190.058V191.751Z" fill="#072622"/>
<g filter="url(#filter0_d_1560_1216)">
<path fill-rule="evenodd" clip-rule="evenodd" d="M336.091 133.224C338.009 147.165 338.57 161.396 337.773 175.917C336.657 191.584 337.827 191.237 336.091 191.237C335.436 191.237 332.768 191.589 332.179 190.558C330.772 188.089 328.501 167.387 329.376 163.225C329.463 162.599 320.627 143.172 320.627 135.616C320.956 134.142 326.11 133.345 336.091 133.224Z" fill="#154751"/>
</g>
<g filter="url(#filter1_d_1560_1216)">
<path fill-rule="evenodd" clip-rule="evenodd" d="M308.822 133.224C306.904 147.165 306.345 161.396 307.14 175.917C308.256 191.584 307.087 191.237 308.822 191.237C309.478 191.237 312.145 191.589 312.735 190.558C314.141 188.089 316.414 167.387 315.539 163.225C315.451 162.599 324.286 143.172 324.286 135.616C323.958 134.142 318.804 133.345 308.822 133.224Z" fill="#154751"/>
</g>
<path fill-rule="evenodd" clip-rule="evenodd" d="M303.924 104.406C300.688 111.652 298.712 116.231 297.998 118.139C297.667 118.93 293.386 120.901 285.158 124.051C282.399 124.293 280.822 125.112 280.426 126.51C280.201 127.407 280.302 128.944 281.706 129.072C282.643 129.157 283.977 128.451 285.709 126.956C294.902 127.286 300.369 125.753 302.11 122.357C303.852 118.961 306.504 113.703 310.067 106.588L304.35 103.796L303.924 104.406Z" fill="url(#paint4_linear_1560_1216)"/>
<path fill-rule="evenodd" clip-rule="evenodd" d="M334.123 93.6337C334.123 92.3243 339.414 87.8351 341.09 86.0258C341.553 85.9488 332.66 84.3754 326.599 80.705C322.557 78.2592 322.244 77.4575 325.66 78.2985C334.282 79.9034 340.706 81.3243 344.933 82.5598C349.106 84.4445 344.851 90.6079 340.705 98.0884C336.556 105.569 334.123 94.9447 334.123 93.6337Z" fill="url(#paint5_linear_1560_1216)"/>
<path fill-rule="evenodd" clip-rule="evenodd" d="M317.746 79.1529C316.743 84.1515 317.214 87.0909 319.157 87.9696C321.702 89.029 319.906 91.2155 319.392 91.4843C319.047 91.6635 319.132 92.2718 319.643 93.3061C321.251 94.1565 322.435 94.4945 323.189 94.3216C323.945 94.1487 324.868 93.2983 325.956 91.7704C323.93 90.3148 323.224 89.1469 323.838 88.2667C324.455 87.3864 325.39 86.47 326.646 85.5143C327.864 84.5822 327.817 83.8717 326.504 83.386C326.822 82.5042 326.94 81.4982 326.856 80.3696L322.586 79.1529L318.239 78.2051L317.746 79.1529Z" fill="url(#paint6_linear_1560_1216)"/>
<path fill-rule="evenodd" clip-rule="evenodd" d="M319.769 91.0767C311.7 91.2433 306.084 95.7138 302.92 104.486C303.343 104.644 309.239 107.471 309.239 109.306C309.239 111.139 305.971 129.462 306.372 133.285C306.772 137.108 322.419 140.71 337.727 135.671C338.771 134.668 337.789 112.516 335.099 106.643C334.959 106.398 341.692 100.234 341.22 98.015C340.749 95.7971 336.571 91.8752 334.288 91.8752C332.006 91.8752 326.473 92.232 325.182 91.0767C324.638 90.5879 325.181 92.6565 322.366 92.6565C321.238 92.6565 320.372 92.1299 319.769 91.0767Z" fill="#15D07F"/>
<path fill-rule="evenodd" clip-rule="evenodd" d="M320.602 80.2879C324.764 79.1043 325.871 80.9245 325.871 81.6947C325.871 82.2072 325.739 83.0576 325.476 84.2475C325.989 84.0196 326.349 83.8467 326.558 83.7288C327.703 83.0569 328.564 81.9906 328.98 80.7296C329.543 78.8669 327.889 74.9168 323.603 75.5047C322.109 75.2218 321.872 73.0227 319.275 74.3761C316.678 75.7295 315.803 74.6889 315.803 76.0753C315.803 77.4632 315.91 81.7372 320.602 80.2879Z" fill="#072126"/>
<path d="M120.333 198.789C132.383 198.789 142.153 189.02 142.153 176.972C142.153 164.922 132.383 155.152 120.333 155.152C108.283 155.152 98.5155 164.922 98.5155 176.972C98.5155 189.02 108.283 198.789 120.333 198.789Z" fill="url(#paint7_linear_1560_1216)"/>
<path d="M121.545 164.849C121.545 164.527 121.417 164.219 121.19 163.992C120.963 163.764 120.655 163.637 120.333 163.637C120.012 163.637 119.704 163.764 119.476 163.992C119.249 164.219 119.121 164.527 119.121 164.849V169.698C119.121 170.019 119.249 170.328 119.476 170.555C119.704 170.782 120.012 170.91 120.333 170.91C120.655 170.91 120.963 170.782 121.19 170.555C121.417 170.328 121.545 170.019 121.545 169.698V164.849Z" fill="#161531"/>
<path opacity="0.9" d="M129.054 168.465C129.244 168.216 129.331 167.905 129.296 167.594C129.262 167.283 129.109 166.998 128.87 166.797C128.63 166.596 128.323 166.496 128.011 166.516C127.699 166.537 127.407 166.677 127.196 166.907L124.081 170.621C123.978 170.743 123.901 170.884 123.853 171.036C123.805 171.187 123.788 171.347 123.802 171.506C123.83 171.826 123.984 172.122 124.23 172.328C124.476 172.535 124.794 172.635 125.114 172.607C125.435 172.579 125.73 172.425 125.937 172.179L129.054 168.465Z" fill="#161531"/>
<path opacity="0.7" d="M132.482 176.058C132.639 176.031 132.789 175.973 132.923 175.887C133.057 175.801 133.173 175.69 133.265 175.56C133.356 175.429 133.421 175.282 133.455 175.127C133.49 174.971 133.493 174.811 133.465 174.654C133.438 174.497 133.38 174.347 133.294 174.213C133.208 174.079 133.097 173.963 132.967 173.872C132.836 173.78 132.689 173.715 132.534 173.681C132.378 173.647 132.218 173.643 132.061 173.671L127.286 174.513C126.969 174.569 126.688 174.749 126.503 175.012C126.319 175.275 126.247 175.601 126.302 175.918C126.358 176.234 126.538 176.516 126.801 176.7C127.064 176.885 127.39 176.957 127.707 176.901L132.482 176.058Z" fill="#161531"/>
<path opacity="0.6" d="M130.225 184.082C130.504 184.242 130.834 184.286 131.145 184.203C131.456 184.119 131.72 183.916 131.881 183.638C132.042 183.359 132.085 183.028 132.002 182.718C131.919 182.407 131.715 182.142 131.437 181.982L127.238 179.558C126.961 179.414 126.639 179.382 126.339 179.469C126.039 179.557 125.784 179.757 125.628 180.028C125.471 180.299 125.426 180.619 125.5 180.923C125.574 181.227 125.763 181.49 126.027 181.658L130.225 184.082Z" fill="#161531"/>
<path opacity="0.5" d="M123.34 188.776C123.395 188.925 123.478 189.063 123.586 189.18C123.693 189.297 123.823 189.392 123.967 189.459C124.111 189.527 124.268 189.565 124.427 189.572C124.586 189.578 124.744 189.554 124.894 189.5C125.044 189.445 125.181 189.362 125.298 189.254C125.416 189.146 125.511 189.017 125.578 188.873C125.645 188.728 125.683 188.572 125.69 188.413C125.697 188.254 125.672 188.095 125.618 187.946L123.96 183.39C123.85 183.088 123.624 182.842 123.333 182.706C123.042 182.571 122.709 182.556 122.407 182.666C122.104 182.776 121.858 183.001 121.723 183.292C121.587 183.583 121.572 183.917 121.682 184.219L123.34 188.776Z" fill="#161531"/>
<path opacity="0.4" d="M115.049 187.946C114.994 188.096 114.97 188.255 114.976 188.414C114.983 188.573 115.022 188.729 115.089 188.874C115.225 189.165 115.471 189.391 115.773 189.501C116.075 189.611 116.409 189.597 116.701 189.461C116.992 189.325 117.218 189.079 117.328 188.776L118.986 184.22C119.041 184.07 119.065 183.911 119.058 183.752C119.051 183.593 119.013 183.437 118.945 183.292C118.878 183.148 118.783 183.018 118.665 182.911C118.548 182.803 118.41 182.72 118.261 182.666C118.111 182.611 117.952 182.587 117.793 182.594C117.634 182.601 117.478 182.639 117.334 182.707C117.189 182.774 117.06 182.869 116.952 182.987C116.845 183.104 116.761 183.241 116.707 183.391L115.049 187.946Z" fill="#161531"/>
<path opacity="0.3" d="M109.231 181.982C109.086 182.057 108.957 182.161 108.853 182.288C108.749 182.415 108.672 182.561 108.626 182.718C108.58 182.876 108.566 183.04 108.586 183.203C108.606 183.366 108.658 183.523 108.74 183.665C108.822 183.807 108.931 183.931 109.063 184.029C109.194 184.127 109.343 184.198 109.502 184.237C109.661 184.276 109.827 184.282 109.989 184.256C110.15 184.229 110.305 184.17 110.443 184.082L114.641 181.658C114.905 181.49 115.094 181.227 115.168 180.923C115.242 180.619 115.197 180.299 115.04 180.028C114.884 179.757 114.629 179.557 114.329 179.469C114.029 179.382 113.707 179.414 113.43 179.558L109.231 181.982Z" fill="#161531"/>
<path opacity="0.2" d="M108.607 173.671C108.29 173.615 107.965 173.687 107.701 173.872C107.438 174.056 107.258 174.337 107.203 174.654C107.147 174.971 107.219 175.296 107.403 175.56C107.588 175.823 107.869 176.003 108.186 176.058L112.961 176.901C113.278 176.957 113.604 176.885 113.867 176.7C114.13 176.516 114.31 176.234 114.366 175.918C114.421 175.601 114.349 175.275 114.165 175.012C113.98 174.749 113.699 174.569 113.382 174.513L108.607 173.671Z" fill="#161531"/>
<path opacity="0.1" d="M113.47 166.906C113.368 166.785 113.243 166.684 113.102 166.611C112.961 166.537 112.806 166.492 112.648 166.478C112.489 166.464 112.33 166.482 112.178 166.53C112.026 166.578 111.885 166.655 111.763 166.757C111.641 166.859 111.541 166.985 111.467 167.126C111.394 167.267 111.349 167.421 111.335 167.58C111.321 167.738 111.339 167.898 111.387 168.05C111.434 168.201 111.512 168.342 111.614 168.464L114.731 172.179C114.938 172.425 115.234 172.579 115.554 172.607C115.874 172.635 116.192 172.534 116.438 172.328C116.684 172.121 116.838 171.825 116.866 171.505C116.894 171.185 116.794 170.867 116.587 170.621L113.47 166.906Z" fill="#161531"/>
<path opacity="0.22" d="M24.5758 186.084C47.0946 195.604 65.407 189.164 79.5162 166.761C100.677 133.159 129.219 131.138 151.337 152.729C173.456 174.32 186.701 195.417 231.262 191.742C255.407 189.143 271.719 168.872 280.201 130.929" stroke="url(#paint8_linear_1560_1216)" stroke-width="1.1114" stroke-linecap="round" stroke-dasharray="3.33 3.33"/>
<path fill-rule="evenodd" clip-rule="evenodd" d="M272.182 109.48C272.571 109.98 279.733 119.347 293.663 137.579L284.139 138.711C275.778 118.724 271.792 108.98 272.182 109.48Z" fill="#D4D4FF"/>
<path fill-rule="evenodd" clip-rule="evenodd" d="M272.182 109.481C272.424 110.285 273.609 121.766 275.737 143.927L284.139 138.711C275.926 118.42 271.941 108.676 272.182 109.481Z" fill="#506267"/>
<path fill-rule="evenodd" clip-rule="evenodd" d="M272.182 109.479L265.773 141.441L277.79 138.625L272.182 109.479Z" fill="#D4D4FF"/>
<defs>
<filter id="filter0_d_1560_1216" x="315.581" y="133.224" width="27.589" height="68.1635" filterUnits="userSpaceOnUse" color-interpolation-filters="sRGB">
<feFlood flood-opacity="0" result="BackgroundImageFix"/>
<feColorMatrix in="SourceAlpha" type="matrix" values="0 0 0 0 0 0 0 0 0 0 0 0 0 0 0 0 0 0 127 0" result="hardAlpha"/>
<feOffset dy="5.04608"/>
<feGaussianBlur stdDeviation="2.52304"/>
<feComposite in2="hardAlpha" operator="out"/>
<feColorMatrix type="matrix" values="0 0 0 0 0 0 0 0 0 0 0 0 0 0 0 0 0 0 0.25 0"/>
<feBlend mode="normal" in2="BackgroundImageFix" result="effect1_dropShadow_1560_1216"/>
<feBlend mode="normal" in="SourceGraphic" in2="effect1_dropShadow_1560_1216" result="shape"/>
</filter>
<filter id="filter1_d_1560_1216" x="301.744" y="133.224" width="27.5883" height="68.1635" filterUnits="userSpaceOnUse" color-interpolation-filters="sRGB">
<feFlood flood-opacity="0" result="BackgroundImageFix"/>
<feColorMatrix in="SourceAlpha" type="matrix" values="0 0 0 0 0 0 0 0 0 0 0 0 0 0 0 0 0 0 127 0" result="hardAlpha"/>
<feOffset dy="5.04608"/>
<feGaussianBlur stdDeviation="2.52304"/>
<feComposite in2="hardAlpha" operator="out"/>
<feColorMatrix type="matrix" values="0 0 0 0 0 0 0 0 0 0 0 0 0 0 0 0 0 0 0.25 0"/>
<feBlend mode="normal" in2="BackgroundImageFix" result="effect1_dropShadow_1560_1216"/>
<feBlend mode="normal" in="SourceGraphic" in2="effect1_dropShadow_1560_1216" result="shape"/>
</filter>
<linearGradient id="paint0_linear_1560_1216" x1="213.062" y1="-0.000428046" x2="213.062" y2="175.758" gradientUnits="userSpaceOnUse">
<stop stop-color="#44F1A6"/>
<stop offset="1" stop-color="#DEDEE6" stop-opacity="0"/>
</linearGradient>
<linearGradient id="paint1_linear_1560_1216" x1="111.939" y1="119.224" x2="111.939" y2="199.225" gradientUnits="userSpaceOnUse">
<stop stop-color="#44F1A6"/>
<stop offset="1" stop-color="#DEDEE6" stop-opacity="0"/>
</linearGradient>
<linearGradient id="paint2_linear_1560_1216" x1="261.546" y1="15.7568" x2="261.546" y2="200" gradientUnits="userSpaceOnUse">
<stop stop-color="#ECECF0"/>
<stop offset="1" stop-color="#D8D8E4"/>
</linearGradient>
<linearGradient id="paint3_linear_1560_1216" x1="271.243" y1="15.7568" x2="271.243" y2="185.176" gradientUnits="userSpaceOnUse">
<stop stop-color="#F8F8FB"/>
<stop offset="1" stop-color="#FAFAFE"/>
</linearGradient>
<linearGradient id="paint4_linear_1560_1216" x1="284.106" y1="124.422" x2="303.894" y2="106.229" gradientUnits="userSpaceOnUse">
<stop stop-color="#FFD2C4"/>
<stop offset="1" stop-color="#FFB8A3"/>
</linearGradient>
<linearGradient id="paint5_linear_1560_1216" x1="334.98" y1="80.4362" x2="339.425" y2="95.0076" gradientUnits="userSpaceOnUse">
<stop stop-color="#FFD2C4"/>
<stop offset="1" stop-color="#FFB8A3"/>
</linearGradient>
<linearGradient id="paint6_linear_1560_1216" x1="319.324" y1="80.8128" x2="327.315" y2="89.7049" gradientUnits="userSpaceOnUse">
<stop stop-color="#FFD2C4"/>
<stop offset="1" stop-color="#FFB8A3"/>
</linearGradient>
<linearGradient id="paint7_linear_1560_1216" x1="116.836" y1="158.868" x2="129.34" y2="195.957" gradientUnits="userSpaceOnUse">
<stop stop-color="white"/>
<stop offset="1" stop-color="#E8E8EF"/>
</linearGradient>
<linearGradient id="paint8_linear_1560_1216" x1="49.4634" y1="163.122" x2="148.069" y2="134.434" gradientUnits="userSpaceOnUse">
<stop stop-color="#072126" stop-opacity="0"/>
<stop offset="1" stop-color="#072126"/>
</linearGradient>
</defs>
</svg>
