<svg width="36" height="36" viewBox="0 0 36 36" fill="none" xmlns="http://www.w3.org/2000/svg">
<rect width="36" height="36" rx="18" fill="#FF6500"/>
<path d="M17.5312 9.77656L15.5068 14.489H13.4824C13.1464 14.489 12.8188 14.5142 12.4996 14.5814L13.3396 12.5654L13.3732 12.4898L13.4236 12.3554C13.4488 12.2966 13.4656 12.2462 13.4908 12.2042C14.4652 9.94456 15.5572 9.23896 17.5312 9.77656Z" fill="white"/>
<path d="M23.2348 14.7157L23.218 14.7073C22.714 14.5645 22.2016 14.4889 21.6808 14.4889H16.4224L18.3124 10.0957L18.3376 10.0369C18.4552 10.0789 18.5812 10.1377 18.7072 10.1797L20.5636 10.9609C21.5968 11.3893 22.3192 11.8345 22.7644 12.3721C22.84 12.4729 22.9072 12.5653 22.9744 12.6745C23.05 12.7921 23.1088 12.9097 23.1424 13.0357C23.176 13.1113 23.2012 13.1785 23.218 13.2541C23.344 13.6825 23.3524 14.1697 23.2348 14.7157Z" fill="white"/>
<path d="M22.8652 15.9168C22.4872 15.8076 22.0924 15.7488 21.6808 15.7488H13.4824C12.9112 15.7488 12.3736 15.858 11.8696 16.0764C10.408 16.7064 9.38324 18.1596 9.38324 19.848V21.486C9.38324 21.6876 9.40004 21.8808 9.42524 22.0824C9.61004 24.7536 11.038 26.1816 13.7092 26.358C13.9024 26.3832 14.0956 26.4 14.3056 26.4H20.8576C23.9656 26.4 25.6036 24.9216 25.7632 21.9816C25.7716 21.822 25.78 21.654 25.78 21.486V19.848C25.78 17.9916 24.5452 16.4292 22.8652 15.9168ZM19.6816 21.5196H18.2116V23.04C18.2116 23.3844 17.926 23.67 17.5816 23.67C17.2372 23.67 16.9516 23.3844 16.9516 23.04V21.5196H15.4816C15.1372 21.5196 14.8516 21.2424 14.8516 20.8896C14.8516 20.5452 15.1372 20.2596 15.4816 20.2596H16.9516V18.84C16.9516 18.4956 17.2372 18.21 17.5816 18.21C17.926 18.21 18.2116 18.4956 18.2116 18.84V20.2596H19.6816C20.026 20.2596 20.3116 20.5452 20.3116 20.8896C20.3116 21.2424 20.026 21.5196 19.6816 21.5196Z" fill="white"/>
</svg>
