<svg width="20" height="20" viewBox="0 0 20 20" fill="none" xmlns="http://www.w3.org/2000/svg">
<g clip-path="url(#clip0_2317_2755)">
<path fill-rule="evenodd" clip-rule="evenodd" d="M17.501 2.33301C18.9733 2.33345 20.1669 3.52762 20.167 5V15C20.1668 16.4723 18.9733 17.6656 17.501 17.666H2.50098C1.02833 17.666 -0.166816 16.4726 -0.166992 15V5C-0.16686 3.52735 1.0283 2.33301 2.50098 2.33301H17.501ZM1.83398 9.33301V15C1.83416 15.368 2.1329 15.666 2.50098 15.666H17.501C17.8687 15.6656 18.1668 15.3678 18.167 15V9.33301H1.83398ZM2.50098 4.33301C2.13287 4.33301 1.83412 4.63192 1.83398 5V7.33301H18.167V5C18.1669 4.63219 17.8687 4.33345 17.501 4.33301H2.50098Z" fill="#072126" fill-opacity="0.4"/>
</g>
<defs>
<clipPath id="clip0_2317_2755">
<rect width="20" height="20" fill="white"/>
</clipPath>
</defs>
</svg>
