<svg width="20" height="20" viewBox="0 0 20 20" fill="none" xmlns="http://www.w3.org/2000/svg">
<g clip-path="url(#clip0_2317_2759)">
<path d="M8.33337 4.99967C8.33337 3.15873 6.84098 1.66634 5.00004 1.66634C3.15909 1.66634 1.6667 3.15873 1.6667 4.99967C1.6667 6.84062 3.15909 8.33301 5.00004 8.33301C6.84098 8.33301 8.33337 6.84062 8.33337 4.99967Z" stroke="#072126" stroke-opacity="0.4" stroke-width="2"/>
<path d="M8.33337 14.9997C8.33337 13.1587 6.84098 11.6663 5.00004 11.6663C3.15909 11.6663 1.6667 13.1587 1.6667 14.9997C1.6667 16.8406 3.15909 18.333 5.00004 18.333C6.84098 18.333 8.33337 16.8406 8.33337 14.9997Z" stroke="#072126" stroke-opacity="0.4" stroke-width="2"/>
<path d="M18.3334 4.99967C18.3334 3.15873 16.841 1.66634 15 1.66634C13.1591 1.66634 11.6667 3.15873 11.6667 4.99967C11.6667 6.84062 13.1591 8.33301 15 8.33301C16.841 8.33301 18.3334 6.84062 18.3334 4.99967Z" stroke="#072126" stroke-opacity="0.4" stroke-width="2"/>
<path d="M18.3334 14.9997C18.3334 13.1587 16.841 11.6663 15 11.6663C13.1591 11.6663 11.6667 13.1587 11.6667 14.9997C11.6667 16.8406 13.1591 18.333 15 18.333C16.841 18.333 18.3334 16.8406 18.3334 14.9997Z" stroke="#072126" stroke-opacity="0.4" stroke-width="2"/>
</g>
<defs>
<clipPath id="clip0_2317_2759">
<rect width="20" height="20" fill="white"/>
</clipPath>
</defs>
</svg>
