<svg width="20" height="20" viewBox="0 0 20 20" fill="none" xmlns="http://www.w3.org/2000/svg">
<g clip-path="url(#clip0_2324_2784)">
<path d="M12.5001 14.1665C11.8339 14.6851 10.9587 14.9998 10.0001 14.9998C9.04159 14.9998 8.16639 14.6851 7.50012 14.1665" stroke="#072126" stroke-width="2" stroke-linecap="round"/>
<path d="M1.95962 11.011C1.66544 9.09671 1.51834 8.13953 1.88026 7.29098C2.24218 6.44244 3.04515 5.86186 4.65108 4.70072L5.85095 3.83317C7.8487 2.38873 8.84758 1.6665 10.0001 1.6665C11.1527 1.6665 12.1516 2.38873 14.1493 3.83317L15.3492 4.70072C16.9551 5.86186 17.7581 6.44244 18.12 7.29098C18.4819 8.13953 18.3348 9.0967 18.0406 11.011L17.7898 12.6435C17.3727 15.3573 17.1642 16.7142 16.191 17.5237C15.2177 18.3332 13.7948 18.3332 10.9491 18.3332H9.05112C6.20541 18.3332 4.78255 18.3332 3.80929 17.5237C2.83604 16.7142 2.62752 15.3573 2.21048 12.6435L1.95962 11.011Z" stroke="#072126" stroke-width="2" stroke-linejoin="round"/>
</g>
<defs>
<clipPath id="clip0_2324_2784">
<rect width="20" height="20" fill="white"/>
</clipPath>
</defs>
</svg>
