<svg width="20" height="20" viewBox="0 0 20 20" fill="none" xmlns="http://www.w3.org/2000/svg">
<path fill-rule="evenodd" clip-rule="evenodd" d="M13.5635 1.55286C13.9902 1.47162 14.4308 1.48484 14.8516 1.5929C15.2722 1.70104 15.6643 1.90103 15.999 2.17786C16.3337 2.45476 16.603 2.80244 16.7881 3.19544C16.9731 3.5885 17.0691 4.01784 17.0693 4.45227V4.74426C18.2581 5.09693 19.1259 6.19693 19.126 7.50012V15.0001C19.126 16.5878 17.8386 17.8749 16.251 17.8751H3.75098C2.16316 17.8751 0.875977 16.5879 0.875977 15.0001V6.21008C0.875838 5.52304 1.11497 4.85682 1.55273 4.32727C1.99089 3.79758 2.60108 3.43643 3.27637 3.30774L3.29492 3.30481L13.5635 1.55286ZM3.75098 6.62512C3.26777 6.62512 2.87605 7.01694 2.87598 7.50012V15.0001C2.87598 15.4834 3.26773 15.8751 3.75098 15.8751H16.251C16.734 15.8749 17.126 15.4832 17.126 15.0001V7.50012C17.1259 7.0171 16.734 6.62539 16.251 6.62512H3.75098ZM14.1309 10.0245C14.3733 9.97631 14.6251 10.0012 14.8535 10.0958C15.0818 10.1904 15.2768 10.3504 15.4141 10.5558C15.5514 10.7613 15.625 11.0029 15.625 11.2501C15.625 11.5816 15.4932 11.8995 15.2588 12.1339C15.0244 12.3683 14.7065 12.5001 14.375 12.5001C14.1278 12.5001 13.8862 12.4265 13.6807 12.2892C13.4752 12.1518 13.3143 11.957 13.2197 11.7286C13.1252 11.5003 13.1012 11.2484 13.1494 11.006C13.1977 10.7637 13.3165 10.541 13.4912 10.3663C13.6659 10.1916 13.8885 10.0728 14.1309 10.0245ZM14.3535 3.5304C14.218 3.4956 14.076 3.49066 13.9385 3.51673C13.9323 3.51789 13.9251 3.51955 13.9189 3.52063L7.44434 4.62512H15.0693V4.45325L15.0635 4.34778C15.0519 4.24398 15.0232 4.14193 14.9785 4.047C14.9188 3.92035 14.8315 3.80814 14.7236 3.71887C14.6157 3.62966 14.4891 3.56528 14.3535 3.5304Z" fill="#072126"/>
</svg>
