<svg width="20" height="20" viewBox="0 0 20 20" fill="none" xmlns="http://www.w3.org/2000/svg">
<g clip-path="url(#clip0_613_2340)">
<path d="M15.8354 14.1646C14.4604 14.1646 13.3417 15.2833 13.3417 16.6583C13.3417 18.0334 14.4604 19.1521 15.8354 19.1521C17.2105 19.1521 18.3292 18.0334 18.3292 16.6583C18.3292 15.2833 17.2105 14.1646 15.8354 14.1646ZM15.8354 17.6558C15.2853 17.6558 14.8379 17.2084 14.8379 16.6583C14.8379 16.1082 15.2853 15.6608 15.8354 15.6608C16.3856 15.6608 16.8329 16.1082 16.8329 16.6583C16.8329 17.2084 16.3856 17.6558 15.8354 17.6558Z" fill="#072126"/>
<path d="M19.841 4.52644C19.6994 4.34515 19.4821 4.2394 19.252 4.2394H4.618L3.94467 1.4222C3.86412 1.08556 3.56311 0.8479 3.21697 0.8479H0.748129C0.334924 0.847861 0 1.18279 0 1.59599C0 2.0092 0.334924 2.34412 0.748129 2.34412H2.62646L5.05788 12.5177C5.13843 12.8546 5.43945 13.092 5.78558 13.092H17.4315C17.7755 13.092 18.0752 12.8576 18.1577 12.5239L19.9782 5.1673C20.0333 4.9439 19.9827 4.70773 19.841 4.52644ZM16.8462 11.5958H6.37609L4.97558 5.73566H18.2961L16.8462 11.5958Z" fill="#072126"/>
<path d="M6.78307 14.1646C5.40798 14.1646 4.28931 15.2833 4.28931 16.6583C4.28931 18.0334 5.40802 19.1521 6.78307 19.1521C8.15812 19.1521 9.27684 18.0334 9.27684 16.6583C9.27684 15.2833 8.15812 14.1646 6.78307 14.1646ZM6.78307 17.6558C6.23295 17.6558 5.78557 17.2084 5.78557 16.6583C5.78557 16.1082 6.23295 15.6608 6.78307 15.6608C7.33319 15.6608 7.78058 16.1082 7.78058 16.6583C7.78058 17.2084 7.33319 17.6558 6.78307 17.6558Z" fill="#072126"/>
</g>
<defs>
<clipPath id="clip0_613_2340">
<rect width="20" height="20" fill="white"/>
</clipPath>
</defs>
</svg>
