<svg width="20" height="20" viewBox="0 0 20 20" fill="none" xmlns="http://www.w3.org/2000/svg">
<path d="M15 5.83333H15.625C15.625 5.66757 15.5591 5.5086 15.4419 5.39139C15.3247 5.27418 15.1657 5.20833 15 5.20833V5.83333ZM4.99996 5.83333V5.20833C4.8342 5.20833 4.67523 5.27418 4.55802 5.39139C4.44081 5.5086 4.37496 5.66757 4.37496 5.83333H4.99996ZM14.375 5.83333V9.16667H15.625V5.83333H14.375ZM14.375 9.16667V15.8333H15.625V9.16667H14.375ZM13.3333 16.875H6.66663V18.125H13.3333V16.875ZM5.62496 15.8333V5.83333H4.37496V15.8333H5.62496ZM4.99996 6.45833H15V5.20833H4.99996V6.45833ZM4.99996 3.125H15V1.875H4.99996V3.125ZM2.29163 5.83333C2.29163 4.33757 3.50418 3.125 4.99996 3.125V1.875C2.81383 1.875 1.04163 3.64721 1.04163 5.83333H2.29163ZM4.99996 8.54167C3.50418 8.54167 2.29163 7.32911 2.29163 5.83333H1.04163C1.04163 8.01946 2.81383 9.79167 4.99996 9.79167V8.54167ZM17.7083 5.83333C17.7083 7.32911 16.4957 8.54167 15 8.54167V9.79167C17.1861 9.79167 18.9583 8.01946 18.9583 5.83333H17.7083ZM18.9583 5.83333C18.9583 3.64721 17.1861 1.875 15 1.875V3.125C16.4957 3.125 17.7083 4.33757 17.7083 5.83333H18.9583ZM14.375 15.8333C14.375 16.4087 13.9086 16.875 13.3333 16.875V18.125C14.599 18.125 15.625 17.099 15.625 15.8333H14.375ZM6.66663 16.875C6.09133 16.875 5.62496 16.4087 5.62496 15.8333H4.37496C4.37496 17.099 5.40098 18.125 6.66663 18.125V16.875Z" fill="#072126"/>
<path d="M11.2247 10.9302C11.4687 11.1743 11.8644 11.1743 12.1085 10.9302C12.3526 10.6861 12.3526 10.2904 12.1085 10.0464L11.2247 10.9302ZM7.89131 10.0464C7.64723 10.2904 7.64723 10.6861 7.89131 10.9302C8.13538 11.1743 8.53108 11.1743 8.77517 10.9302L7.89131 10.0464ZM9.37492 13.8216C9.37492 14.1668 9.65475 14.4466 9.99992 14.4466C10.3451 14.4466 10.6249 14.1668 10.6249 13.8216H9.37492ZM10.6249 9.65494C10.6249 9.30977 10.3451 9.02994 9.99992 9.02994C9.65475 9.02994 9.37492 9.30977 9.37492 9.65494H10.6249ZM12.1085 10.0464L11.0311 8.96894L10.1472 9.85277L11.2247 10.9302L12.1085 10.0464ZM8.96875 8.96894L7.89131 10.0464L8.77517 10.9302L9.85258 9.85277L8.96875 8.96894ZM11.0311 8.96894C10.4616 8.39935 9.53825 8.39935 8.96875 8.96894L9.85258 9.85277C9.934 9.77144 10.0658 9.77144 10.1472 9.85277L11.0311 8.96894ZM10.6249 13.8216V9.65494H9.37492V13.8216H10.6249Z" fill="#072126"/>
</svg>
