<svg width="14" height="13" viewBox="0 0 14 13" fill="none" xmlns="http://www.w3.org/2000/svg">
<path d="M1.80931 0.690721C3.67242 -0.45211 5.34381 0.00335678 6.35352 0.76163C6.51963 0.886376 6.63364 0.971749 6.7185 1.0294C6.80337 0.971749 6.91738 0.886376 7.08349 0.76163C8.0932 0.00335678 9.7646 -0.45211 11.6277 0.690721C12.916 1.48095 13.6409 3.13163 13.3865 5.0282C13.1309 6.93392 11.8974 9.08932 9.28517 11.0228C8.37806 11.6946 7.7123 12.1877 6.71851 12.1877C5.72472 12.1877 5.05895 11.6946 4.15184 11.0228C1.53959 9.08932 0.306097 6.93392 0.050505 5.0282C-0.20386 3.13163 0.521034 1.48095 1.80931 0.690721Z" fill="#B2BABC"/>
</svg>
