<svg width="20" height="20" viewBox="0 0 20 20" fill="none" xmlns="http://www.w3.org/2000/svg">
<path fill-rule="evenodd" clip-rule="evenodd" d="M3.33333 5.83366C3.33333 3.53248 5.19881 1.66699 7.49999 1.66699C9.80116 1.66699 11.6667 3.53248 11.6667 5.83366C11.6667 8.13484 9.80116 10.0003 7.49999 10.0003C5.19881 10.0003 3.33333 8.13484 3.33333 5.83366ZM7.49999 3.33366C6.11929 3.33366 4.99999 4.45295 4.99999 5.83366C4.99999 7.21437 6.11929 8.33366 7.49999 8.33366C8.88074 8.33366 9.99999 7.21437 9.99999 5.83366C9.99999 4.45295 8.88074 3.33366 7.49999 3.33366Z" fill="#072126"/>
<path d="M4.99999 13.3337C4.33695 13.3337 3.70107 13.5971 3.23223 14.0659C2.76339 14.5347 2.49999 15.1706 2.49999 15.8337V17.5003C2.49999 17.9606 2.12689 18.3337 1.66666 18.3337C1.20643 18.3337 0.833328 17.9606 0.833328 17.5003V15.8337C0.833328 14.7286 1.27231 13.6687 2.05372 12.8874C2.83512 12.106 3.89493 11.667 4.99999 11.667H9.99999C11.1051 11.667 12.1649 12.106 12.9462 12.8874C13.7277 13.6687 14.1667 14.7286 14.1667 15.8337V17.5003C14.1667 17.9606 13.7936 18.3337 13.3333 18.3337C12.8731 18.3337 12.5 17.9606 12.5 17.5003V15.8337C12.5 15.1706 12.2366 14.5347 11.7677 14.0659C11.2989 13.5971 10.663 13.3337 9.99999 13.3337H4.99999Z" fill="#072126"/>
<path d="M16.6667 6.66634C16.6667 6.20611 16.2936 5.83301 15.8333 5.83301C15.3731 5.83301 15 6.20611 15 6.66634V8.33301H13.3333C12.8731 8.33301 12.5 8.70609 12.5 9.16634C12.5 9.62659 12.8731 9.99967 13.3333 9.99967H15V11.6663C15 12.1266 15.3731 12.4997 15.8333 12.4997C16.2936 12.4997 16.6667 12.1266 16.6667 11.6663V9.99967H18.3333C18.7936 9.99967 19.1667 9.62659 19.1667 9.16634C19.1667 8.70609 18.7936 8.33301 18.3333 8.33301H16.6667V6.66634Z" fill="#072126"/>
</svg>
