<svg width="20" height="20" viewBox="0 0 20 20" fill="none" xmlns="http://www.w3.org/2000/svg">
<path d="M9.99879 0.211182C9.53858 0.211182 9.16546 0.584307 9.16546 1.04451V2.35826C6.05066 2.76806 3.63796 5.43806 3.63796 8.66306V12.2545L2.72087 13.3628C2.12671 14.0922 2.00816 15.0381 2.40858 15.9026C2.81004 16.741 3.6365 17.2618 4.56566 17.2618H15.438C16.3723 17.2618 17.1977 16.7385 17.5907 15.8993C17.9973 15.0403 17.8786 14.0903 17.273 13.3578L16.3598 12.2543V8.66285C16.3598 5.43806 13.9469 2.76785 10.8323 2.35806V1.04451C10.8321 0.584307 10.459 0.211182 9.99879 0.211182ZM14.693 8.66285V12.5545C14.693 12.7485 14.7607 12.9364 14.8842 13.0858L15.9884 14.4201C16.1792 14.6508 16.2121 14.9158 16.0825 15.1893C15.96 15.4512 15.7309 15.5951 15.4377 15.5951H4.56566C4.27129 15.5951 4.03921 15.4487 3.9165 15.1924C3.79108 14.9216 3.82525 14.6456 4.009 14.4201L5.11337 13.0856C5.23691 12.9362 5.30462 12.7483 5.30462 12.5543V8.66264C5.30462 6.0741 7.41046 3.96827 9.99879 3.96827C12.5871 3.96827 14.693 6.07431 14.693 8.66285Z" fill="#072126"/>
<path d="M8.42183 18.1226C7.96163 18.1226 7.5885 18.4957 7.5885 18.9559C7.5885 19.4161 7.96163 19.7892 8.42183 19.7892H11.5812C12.0414 19.7892 12.4145 19.4161 12.4145 18.9559C12.4145 18.4957 12.0414 18.1226 11.5812 18.1226H8.42183Z" fill="#072126"/>
</svg>
