<svg width="20" height="20" viewBox="0 0 20 20" fill="none" xmlns="http://www.w3.org/2000/svg">
<path d="M13.4376 18.7432H6.56256C5.65881 18.7432 4.59756 18.1307 4.14631 17.3482L0.708809 11.3957C0.250059 10.6007 0.250059 9.40069 0.708809 8.60507L4.14693 2.65257C4.59818 1.87007 5.65943 1.25757 6.56318 1.25757H13.4376C14.3413 1.25757 15.4026 1.87007 15.8538 2.65257L19.2913 8.60507C19.7501 9.40007 19.7501 10.6001 19.2913 11.3957L15.8532 17.3482C15.4026 18.1307 14.3407 18.7432 13.4376 18.7432ZM6.56256 2.50694C6.09693 2.50694 5.46131 2.87382 5.22881 3.27694L1.79068 9.22944C1.55818 9.63257 1.55818 10.3669 1.79068 10.7701L5.22818 16.7226C5.46131 17.1263 6.09693 17.4926 6.56193 17.4926H13.4376C13.9032 17.4926 14.5388 17.1257 14.7713 16.7226L18.2094 10.7701C18.4419 10.3669 18.4419 9.63257 18.2094 9.22944L14.7719 3.27694C14.5388 2.87319 13.9032 2.50694 13.4382 2.50694H6.56256ZM10.0001 13.6976C7.96068 13.6976 6.30193 12.0388 6.30193 10.0001C6.30193 7.96132 7.96068 6.30257 10.0001 6.30257C12.0394 6.30257 13.6982 7.96132 13.6982 10.0001C13.6982 12.0388 12.0394 13.6976 10.0001 13.6976ZM10.0001 7.55257C8.65006 7.55257 7.55193 8.65069 7.55193 10.0001C7.55193 11.3494 8.65006 12.4476 10.0001 12.4476C11.3501 12.4476 12.4482 11.3494 12.4482 10.0001C12.4482 8.65069 11.3501 7.55257 10.0001 7.55257Z" fill="#072126"/>
</svg>
