<svg width="20" height="20" viewBox="0 0 20 20" fill="none" xmlns="http://www.w3.org/2000/svg">
<g clip-path="url(#clip0_651_9288)">
<path d="M9.8573 16.8155C9.56535 16.6946 9.375 16.4097 9.375 16.0938V9.84375C9.375 8.55141 10.4264 7.5 11.7188 7.5H17.6562C18.9486 7.5 20 8.55141 20 9.84375V12.9688C20 14.2611 18.9486 15.3125 17.6562 15.3125H13.9284C12.7121 15.3125 11.5687 15.7861 10.7087 16.6462C10.4853 16.8696 10.1492 16.9365 9.8573 16.8155ZM11.7188 9.0625C11.288 9.0625 10.9375 9.41297 10.9375 9.84375V14.5281C11.8407 14.0202 12.8638 13.75 13.9284 13.75H17.6562C18.087 13.75 18.4375 13.3995 18.4375 12.9688V9.84375C18.4375 9.41297 18.087 9.0625 17.6562 9.0625H11.7188Z" fill="#072126"/>
<path d="M11.7188 0H8.59375C5.57828 0 3.125 2.45328 3.125 5.46875V7.57855C1.34414 7.94148 0 9.5198 0 11.4062V12.9688C0 14.8552 1.34414 16.4335 3.125 16.7964V16.875C3.125 18.5981 4.52688 20 6.25 20H10.1562C10.5877 20 10.9375 19.6502 10.9375 19.2188C10.9375 18.7873 10.5877 18.4375 10.1562 18.4375H6.25C5.38844 18.4375 4.6875 17.7366 4.6875 16.875V16.7406C5.5968 16.4181 6.25 15.5497 6.25 14.5312V9.84375C6.25 8.82527 5.5968 7.95691 4.6875 7.63438V5.46875C4.6875 3.31484 6.4398 1.5625 8.59375 1.5625H11.7188C13.8727 1.5625 15.625 3.31484 15.625 5.46875C15.625 5.90023 15.9748 6.25 16.4062 6.25C16.8377 6.25 17.1875 5.90023 17.1875 5.46875C17.1875 2.45328 14.7342 0 11.7188 0ZM4.6875 14.5312C4.6875 14.962 4.33703 15.3125 3.90625 15.3125C2.61391 15.3125 1.5625 14.2611 1.5625 12.9688V11.4062C1.5625 10.1141 2.61355 9.06285 3.90563 9.0625C3.90582 9.0625 3.90605 9.06254 3.90625 9.06254C3.90641 9.06254 3.90656 9.0625 3.90672 9.0625C4.3373 9.06277 4.6875 9.41313 4.6875 9.84375V14.5312Z" fill="#072126"/>
<path d="M16.0938 12.1875H13.2812C12.8498 12.1875 12.5 11.8377 12.5 11.4062C12.5 10.9748 12.8498 10.625 13.2812 10.625H16.0938C16.5252 10.625 16.875 10.9748 16.875 11.4062C16.875 11.8377 16.5252 12.1875 16.0938 12.1875Z" fill="#072126"/>
</g>
<defs>
<clipPath id="clip0_651_9288">
<rect width="20" height="20" fill="white"/>
</clipPath>
</defs>
</svg>
