<svg width="20" height="20" viewBox="0 0 20 20" fill="none" xmlns="http://www.w3.org/2000/svg">
<g clip-path="url(#clip0_613_2386)">
<path d="M10.2564 12.499C9.71196 12.5469 8.99348 12.3862 8.67352 11.9867C8.40379 11.65 7.91211 11.5957 7.57535 11.8654C7.23856 12.1351 7.18426 12.6268 7.45399 12.9635C7.8884 13.5059 8.51211 13.8135 9.13305 13.9603C9.16164 14.3657 9.49961 14.6857 9.91231 14.6857C10.3055 14.6857 10.6308 14.3953 10.6855 14.0173C11.1975 13.9275 11.6429 13.724 11.986 13.421C12.3855 13.0682 12.6322 12.6026 12.6996 12.0747C12.8489 10.9048 12.0937 9.78222 10.8629 9.34472C10.037 9.05112 9.55582 8.85776 9.39481 8.7814C9.12864 8.65519 9.00789 8.47729 9.02575 8.23761C9.04473 7.98237 9.22336 7.73284 9.43231 7.66956C10.1991 7.43733 10.7086 7.67144 10.8497 7.87362C11.0966 8.22749 11.5836 8.31417 11.9375 8.06726C12.2913 7.82034 12.378 7.33331 12.1311 6.97948C11.8446 6.56886 11.3434 6.22069 10.6934 6.07831C10.6843 5.65476 10.3381 5.31421 9.91235 5.31421C9.48086 5.31421 9.1311 5.66397 9.1311 6.09546V6.13132C9.08086 6.14444 9.03028 6.15874 8.9793 6.17417C8.15602 6.42358 7.53438 7.2244 7.46754 8.12159C7.4011 9.01378 7.87129 9.78823 8.72532 10.1932C8.98871 10.3181 9.59215 10.5513 10.3396 10.8169C10.9609 11.0378 11.1951 11.5212 11.1497 11.8768C11.0886 12.3553 10.5638 12.4721 10.2564 12.499Z" fill="#072126"/>
<path d="M19.7728 17.0393L18.6253 15.8854C18.321 15.5794 17.8264 15.578 17.5204 15.8822C17.2687 16.1326 17.2231 16.5119 17.3845 16.8089H14.743C16.2791 15.7053 17.4396 14.0824 17.9492 12.1527C18.0593 11.7355 17.8104 11.308 17.3933 11.1979C16.9762 11.0877 16.5486 11.3366 16.4385 11.7538C15.6526 14.7302 12.9633 16.8089 9.89865 16.8089C6.16775 16.8089 3.13248 13.7545 3.13248 10.0001C3.13248 6.24568 6.16768 3.19126 9.89857 3.19126C12.9632 3.19126 15.6525 5.27001 16.4384 8.24642C16.5485 8.66361 16.9761 8.91255 17.3932 8.80232C17.8104 8.69216 18.0592 8.26466 17.9491 7.84751C16.9879 4.20708 13.7099 1.65829 9.96373 1.62904C9.95674 1.62884 2.61561 1.62876 2.61561 1.62876C2.77693 1.33177 2.73139 0.952474 2.47963 0.702122C2.17369 0.397864 1.679 0.39931 1.37479 0.705208L0.227285 1.85911C-0.0757617 2.16384 -0.0757617 2.65611 0.227285 2.96087L1.37475 4.11482C1.52744 4.26837 1.72803 4.34521 1.92877 4.34521C2.12795 4.34521 2.32721 4.26951 2.47963 4.11794C2.73143 3.86755 2.77693 3.48826 2.61561 3.19126H5.04982C4.68248 3.45677 4.33396 3.75419 4.00775 4.08224C2.43568 5.66318 1.5699 7.76486 1.5699 10.0001C1.5699 12.2353 2.43568 14.337 4.00775 15.918C5.581 17.5001 7.67307 18.3715 9.89857 18.3715H17.3845C17.2231 18.6684 17.2687 19.0477 17.5204 19.2981C17.6729 19.4497 17.8721 19.5254 18.0713 19.5254C18.272 19.5254 18.4726 19.4485 18.6253 19.295L19.7728 18.1411C20.0758 17.8363 20.0758 17.344 19.7728 17.0393Z" fill="#072126"/>
</g>
<defs>
<clipPath id="clip0_613_2386">
<rect width="20" height="20" fill="white"/>
</clipPath>
</defs>
</svg>
