<svg width="20" height="20" viewBox="0 0 20 20" fill="none" xmlns="http://www.w3.org/2000/svg">
<path d="M17.5 5.625H16.25V3.75C16.25 3.06062 15.6894 2.5 15 2.5H3.4375C2.23125 2.5 1.25 3.48125 1.25 4.6875V15.9375C1.25 17.1438 2.23125 18.125 3.4375 18.125H17.5C18.1894 18.125 18.75 17.5644 18.75 16.875C18.75 13.0856 18.75 10.2325 18.75 6.875C18.75 6.18563 18.1894 5.625 17.5 5.625ZM3.4375 3.75H15V5.625H3.4375C2.92062 5.625 2.5 5.20438 2.5 4.6875C2.5 4.17062 2.92062 3.75 3.4375 3.75ZM17.5 13.125H15C14.3106 13.125 13.75 12.5644 13.75 11.875C13.75 11.1856 14.3106 10.625 15 10.625H17.5V13.125ZM17.5 9.375H15C13.6213 9.375 12.5 10.4963 12.5 11.875C12.5 13.2537 13.6213 14.375 15 14.375H17.5V16.875H3.4375C2.92062 16.875 2.5 16.4544 2.5 15.9375V6.66375C2.78437 6.79937 3.10187 6.875 3.4375 6.875H17.5V9.375Z" fill="#072126"/>
</svg>
