<svg width="20" height="20" viewBox="0 0 20 20" fill="none" xmlns="http://www.w3.org/2000/svg">
<path d="M10 18.2C9.45342 18.2 8.93882 17.987 8.55162 17.6002L1.92582 10.9742C0.942024 9.9904 0.400024 8.6824 0.400024 7.2908V7.2094C0.400024 5.8178 0.942024 4.5096 1.92582 3.526C2.90962 2.5424 4.21802 2 5.60902 2H5.69102C7.08202 2 8.39042 2.542 9.37422 3.5258L10 4.1516L10.6258 3.5258C11.6096 2.542 12.918 2 14.309 2H14.391C15.782 2 17.0904 2.542 18.0742 3.5258C19.058 4.5096 19.6 5.8176 19.6 7.2092V7.2906C19.6 8.6822 19.058 9.9904 18.0742 10.974L11.4484 17.6C11.0612 17.987 10.5466 18.2 10 18.2ZM9.40002 16.7516C9.72162 17.0726 10.279 17.0718 10.6 16.7514L17.2258 10.126C17.9828 9.3684 18.4 8.3618 18.4 7.2908V7.2094C18.4 6.1384 17.9828 5.1316 17.2258 4.3744C16.4688 3.6172 15.4616 3.2 14.391 3.2H14.309C13.2384 3.2 12.2312 3.6168 11.4742 4.3742L10.4242 5.4242C10.1898 5.6586 9.81022 5.6586 9.57582 5.4242L8.52582 4.3742C7.76883 3.6168 6.76162 3.2 5.69102 3.2H5.60902C4.53842 3.2 3.53122 3.6168 2.77422 4.3742C2.01722 5.1316 1.60002 6.1382 1.60002 7.2092V7.2906C1.60002 8.3616 2.01722 9.3684 2.77422 10.1256L9.40002 16.7516Z" fill="#072126"/>
</svg>
