<svg width="21" height="21" viewBox="0 0 21 21" fill="none" xmlns="http://www.w3.org/2000/svg">
<path d="M10.0312 2.2768L8.00683 6.9892H5.98243C5.64643 6.9892 5.31883 7.0144 4.99963 7.0816L5.83963 5.0656L5.87323 4.99L5.92363 4.8556C5.94883 4.7968 5.96563 4.7464 5.99083 4.7044C6.96523 2.4448 8.05723 1.7392 10.0312 2.2768Z" fill="#072126"/>
<path d="M15.7348 7.21591L15.718 7.20751C15.214 7.06471 14.7016 6.98911 14.1808 6.98911H8.92239L10.8124 2.59591L10.8376 2.53711C10.9552 2.57911 11.0812 2.63791 11.2072 2.67991L13.0636 3.46111C14.0968 3.88951 14.8192 4.33471 15.2644 4.87231C15.34 4.97311 15.4072 5.06551 15.4744 5.17471C15.55 5.29231 15.6088 5.40991 15.6424 5.53591C15.676 5.61151 15.7012 5.67871 15.718 5.75431C15.844 6.18271 15.8524 6.66991 15.7348 7.21591Z" fill="#072126"/>
<path d="M15.3653 8.41702C14.9873 8.30782 14.5925 8.24902 14.1809 8.24902H5.9825C5.4113 8.24902 4.8737 8.35822 4.3697 8.57662C2.9081 9.20665 1.8833 10.6598 1.8833 12.3482V13.9862C1.8833 14.1878 1.9001 14.381 1.9253 14.5826C2.1101 17.2538 3.5381 18.6818 6.2093 18.8582C6.4025 18.8834 6.5957 18.9002 6.8057 18.9002H13.3577C16.4657 18.9002 18.1037 17.4218 18.2633 14.4818C18.2717 14.3222 18.2801 14.1542 18.2801 13.9862V12.3482C18.2801 10.4918 17.0453 8.92945 15.3653 8.41702ZM12.1817 14.0198H10.7117V15.5402C10.7117 15.8846 10.4261 16.1702 10.0817 16.1702C9.73727 16.1702 9.45167 15.8846 9.45167 15.5402V14.0198H7.9817C7.6373 14.0198 7.3517 13.7426 7.3517 13.3898C7.3517 13.0454 7.6373 12.7598 7.9817 12.7598H9.45167V11.3402C9.45167 10.9958 9.73727 10.7102 10.0817 10.7102C10.4261 10.7102 10.7117 10.9958 10.7117 11.3402V12.7598H12.1817C12.5261 12.7598 12.8117 13.0454 12.8117 13.3898C12.8117 13.7426 12.5261 14.0198 12.1817 14.0198Z" fill="#072126"/>
</svg>
