<svg width="20" height="20" viewBox="0 0 20 20" fill="none" xmlns="http://www.w3.org/2000/svg">
<path d="M5.78119 8.33301C5.20541 8.33727 4.85894 8.35491 4.58298 8.42798C3.32696 8.76056 2.46705 9.88626 2.5009 11.1536C2.51071 11.5207 2.65045 11.9744 2.92994 12.8818C3.60255 15.0655 4.73297 16.9612 7.26531 17.4161C7.7308 17.4997 8.25461 17.4997 9.30222 17.4997L10.6977 17.4997C11.7453 17.4997 12.2691 17.4997 12.7346 17.4161C15.2669 16.9612 16.3973 15.0655 17.0699 12.8818C17.3494 11.9744 17.4892 11.5207 17.499 11.1536C17.5328 9.88626 16.6729 8.76056 15.4169 8.42798C15.1409 8.35491 14.7945 8.33727 14.2187 8.33301" stroke="#596A6E" stroke-width="1.25" stroke-linecap="round"/>
<path d="M9.99992 2.49935L9.99992 11.666M9.99992 2.49935C10.3902 2.49935 10.6869 2.86443 11.2803 3.5946L12.0833 4.58268M9.99992 2.49935C9.60961 2.49935 9.31292 2.86443 8.71955 3.5946L7.91659 4.58268" stroke="#596A6E" stroke-width="1.25" stroke-linecap="round" stroke-linejoin="round"/>
</svg>
