<svg width="20" height="20" viewBox="0 0 20 20" fill="none" xmlns="http://www.w3.org/2000/svg">
<path d="M17.0937 3.30664H5.76875C4.875 3.30664 4.1375 4.03166 4.11877 4.92541H14.2313C15.8313 4.92541 17.1312 6.23164 17.1312 7.83163V13.8254C18.025 13.8066 18.75 13.0691 18.75 12.1691V4.96291C18.75 4.05039 18.0063 3.30664 17.0937 3.30664Z" fill="white"/>
<path d="M14.2313 6.1748H2.90627C1.99375 6.1748 1.25 6.91856 1.25 7.83103V9.00603H15.8812V7.83103C15.8812 6.91856 15.1375 6.1748 14.2313 6.1748Z" fill="white"/>
<path d="M1.25 15.0371C1.25 15.9496 1.99375 16.6934 2.90627 16.6934H14.2313C15.1375 16.6934 15.8812 15.9496 15.8812 15.0371V10.2559H1.25V15.0371ZM11.1937 12.9434H13.0687C13.4125 12.9434 13.6937 13.2184 13.6937 13.5684C13.6937 13.9121 13.4125 14.1934 13.0687 14.1934H11.1937C10.85 14.1934 10.5687 13.9121 10.5687 13.5684C10.5687 13.2184 10.85 12.9434 11.1937 12.9434Z" fill="white"/>
</svg>
