<svg width="23" height="23" viewBox="0 0 23 23" fill="none" xmlns="http://www.w3.org/2000/svg">
<path d="M18.7446 7.23049L15.2766 2.37652C15.0553 2.06542 14.7687 1.80644 14.4368 1.61772C14.1049 1.42899 13.7358 1.31508 13.3553 1.28394C12.9748 1.25466 12.5924 1.30782 12.2342 1.43979C11.8761 1.57176 11.5506 1.77944 11.2801 2.04865L6.18427 7.14064C6.08414 7.24089 6.01596 7.36858 5.98835 7.50756C5.96074 7.64655 5.97494 7.7906 6.02915 7.92152C6.08336 8.05244 6.17515 8.16436 6.29293 8.24314C6.41071 8.32193 6.54919 8.36404 6.69089 8.36416H18.1615C18.2932 8.36412 18.4223 8.32779 18.5348 8.25917C18.6472 8.19055 18.7385 8.09228 18.7988 7.97516C18.859 7.85803 18.8858 7.72657 18.8763 7.59521C18.8667 7.46385 18.8211 7.33766 18.7446 7.23049Z" fill="#072126"/>
<path d="M20.1914 12.3563C20.6649 12.1433 21.065 11.7953 21.3417 11.3559C21.6183 10.9165 21.7592 10.4053 21.7466 9.88625V9.55934C21.7461 8.86233 21.469 8.19401 20.9761 7.70115C20.4832 7.20828 19.8149 6.93117 19.1179 6.93066H3.82379C3.12678 6.93117 2.45846 7.20828 1.96559 7.70115C1.47273 8.19401 1.19562 8.86233 1.19511 9.55934V9.88625C1.18252 10.4053 1.32338 10.9165 1.60002 11.3559C1.87667 11.7953 2.27682 12.1433 2.75033 12.3563C3.13953 12.5214 3.4715 12.7975 3.70487 13.15C3.93824 13.5025 4.06269 13.916 4.06269 14.3388C4.06269 14.7615 3.93824 15.175 3.70487 15.5275C3.4715 15.8801 3.13953 16.1561 2.75033 16.3213C2.27682 16.5342 1.87667 16.8822 1.60002 17.3216C1.32338 17.761 1.18252 18.2722 1.19511 18.7913V19.1182C1.19562 19.8152 1.47273 20.4835 1.96559 20.9764C2.45846 21.4692 3.12678 21.7463 3.82379 21.7468H19.1179C19.8149 21.7463 20.4832 21.4692 20.9761 20.9764C21.469 20.4835 21.7461 19.8152 21.7466 19.1182V18.7913C21.7592 18.2722 21.6183 17.761 21.3417 17.3216C21.065 16.8822 20.6649 16.5342 20.1914 16.3213C19.8022 16.1561 19.4702 15.8801 19.2368 15.5275C19.0035 15.175 18.879 14.7615 18.879 14.3388C18.879 13.916 19.0035 13.5025 19.2368 13.15C19.4702 12.7975 19.8022 12.5214 20.1914 12.3563Z" fill="#44F1A6"/>
<path d="M9.44284 17.0824C9.30114 17.0822 9.16266 17.0401 9.04488 16.9613C8.9271 16.8826 8.83531 16.7706 8.7811 16.6397C8.72689 16.5088 8.71269 16.3647 8.7403 16.2258C8.76791 16.0868 8.83609 15.9591 8.93623 15.8588L12.9911 11.804C13.127 11.6773 13.3067 11.6084 13.4925 11.6117C13.6782 11.615 13.8554 11.6902 13.9867 11.8216C14.1181 11.9529 14.1933 12.1301 14.1966 12.3158C14.1999 12.5016 14.1309 12.6813 14.0043 12.8172L9.94946 16.8721C9.88314 16.9389 9.80421 16.9919 9.71724 17.028C9.63028 17.0641 9.53701 17.0826 9.44284 17.0824Z" fill="#072126"/>
<path d="M9.55891 13.3825C10.0868 13.3825 10.5148 12.9545 10.5148 12.4266C10.5148 11.8987 10.0868 11.4707 9.55891 11.4707C9.03099 11.4707 8.60303 11.8987 8.60303 12.4266C8.60303 12.9545 9.03099 13.3825 9.55891 13.3825Z" fill="#072126"/>
<path d="M13.3831 17.2057C13.911 17.2057 14.339 16.7777 14.339 16.2498C14.339 15.7219 13.911 15.2939 13.3831 15.2939C12.8552 15.2939 12.4272 15.7219 12.4272 16.2498C12.4272 16.7777 12.8552 17.2057 13.3831 17.2057Z" fill="#072126"/>
</svg>
