<svg width="52" height="52" viewBox="0 0 52 52" fill="none" xmlns="http://www.w3.org/2000/svg">
<g clip-path="url(#clip0_1377_2261)">
<path d="M46.5401 30.5665H5.45947V19.8498L25.9998 12.7053L46.5401 19.8498V30.5665Z" fill="#52B788"/>
<path d="M25.9998 30.5665H5.45947V19.8498L25.9998 12.7053V30.5665Z" fill="#40916C"/>
<path d="M25.9999 0L28.4835 5.03237L34.0374 5.8388L30.0187 9.75664L30.9671 15.2882L25.9999 12.676L21.0327 15.2882L21.9812 9.75664L17.9624 5.8388L23.5163 5.03237L25.9999 0Z" fill="#FFEA00"/>
<path d="M42.0751 1.78613L43.4549 4.5814L46.5404 5.02971L44.3078 7.20609L44.8347 10.2791L42.0751 8.82788L39.3156 10.2791L39.8425 7.20609L37.6099 5.02971L40.6954 4.5814L42.0751 1.78613Z" fill="#FFEA00"/>
<path d="M4.56684 6.25146L5.94662 9.04673L9.03213 9.49505L6.79949 11.6714L7.32639 14.7444L4.56684 13.2932L1.8073 14.7444L2.3342 11.6714L0.101562 9.49505L3.18707 9.04673L4.56684 6.25146Z" fill="#FFEA00"/>
<path d="M12.4511 0.202881L13.555 2.43999L16.0234 2.7981L14.2372 4.53956L14.6588 6.99815L12.4511 5.83718L10.2435 6.99815L10.665 4.53956L8.87891 2.7981L11.3473 2.43999L12.4511 0.202881Z" fill="#FFEA00"/>
<path d="M25.9999 0L25.59 3.91605C25.3826 5.87799 26.805 7.63664 28.7669 7.84394C29.444 7.91549 30.1274 7.79214 30.7367 7.48828L34.0374 5.8388L30.0187 9.75843L30.9671 15.29L25.9999 12.676L21.0327 15.2882L21.9812 9.75843L17.9624 5.8388L23.5163 5.03505L25.9999 0Z" fill="#FFD000"/>
<path d="M42.0751 1.78613L41.8965 4.2465C41.8238 5.23032 42.5623 6.08676 43.5461 6.15943C43.8464 6.18165 44.1475 6.1275 44.4212 6.00225L46.5404 5.02525L44.3078 7.20163L44.8347 10.2746L42.0751 8.82788L39.3156 10.2791L39.8425 7.20609L37.6099 5.02525L40.6954 4.57872L42.0751 1.78613Z" fill="#FFD000"/>
<path d="M4.56684 6.25146L4.38823 9.09674C4.32561 10.0812 5.07287 10.9301 6.05724 10.9927C6.43679 11.0168 6.81411 10.9192 7.13438 10.7141L9.03213 9.49505L6.79949 11.6714L7.32639 14.7444L4.56684 13.2932L1.8073 14.7444L2.3342 11.6714L0.101562 9.49505L3.18707 9.04852L4.56684 6.25146Z" fill="#FFD000"/>
<path d="M12.4511 0.202881L12.2556 1.60766C12.1218 2.585 12.8058 3.48565 13.7831 3.61938C14.161 3.67107 14.5455 3.60051 14.8802 3.41788L16.0234 2.79274L14.2372 4.53421L14.6588 6.99279L12.4511 5.83182L10.2435 6.99279L10.665 4.53421L8.87891 2.79274L11.3473 2.43552L12.4511 0.202881Z" fill="#FFD000"/>
<path d="M25.9997 27.8875C25.5065 27.8871 25.107 27.4869 25.1074 26.9937C25.1075 26.8053 25.1674 26.6217 25.2781 26.4694L26.0095 25.4638C27.4901 23.4164 27.5464 20.6657 26.1506 18.5596C25.8769 18.1492 25.9876 17.5946 26.398 17.3209C26.8084 17.0472 27.3629 17.1579 27.6367 17.5683C29.4461 20.2963 29.3749 23.8603 27.4581 26.514L26.7275 27.5196C26.5584 27.7523 26.2874 27.8893 25.9997 27.8875Z" fill="#FFEA00"/>
<path d="M18.8559 21.6361C18.6429 21.6359 18.437 21.5595 18.2754 21.4209L16.7706 20.1313C13.5577 17.381 11.7092 13.3626 11.7114 9.13329C11.7114 8.6401 12.1113 8.24023 12.6045 8.24023C13.0977 8.24023 13.4975 8.6401 13.4975 9.13329C13.4943 12.8422 15.1149 16.3665 17.9325 18.7783L19.4373 20.0688C19.8097 20.3922 19.8494 20.9562 19.5259 21.3286C19.3573 21.5228 19.1131 21.6349 18.8559 21.6361Z" fill="#FFEA00"/>
<path d="M33.1444 21.6363C32.6512 21.6355 32.252 21.2349 32.2529 20.7417C32.2537 20.324 32.5438 19.9626 32.9515 19.8717L34.8269 19.4555C38.1678 18.7014 40.699 15.9678 41.1944 12.579C41.2644 12.0907 41.7171 11.7517 42.2054 11.8217C42.6937 11.8916 43.0327 12.3443 42.9627 12.8326C42.3592 16.9556 39.2792 20.2814 35.2145 21.1987L33.3391 21.6149C33.2751 21.6291 33.21 21.6362 33.1444 21.6363Z" fill="#FFEA00"/>
<path d="M31.3583 19.8501C31.2017 19.8511 31.0476 19.8105 30.9118 19.7322C30.4838 19.4875 30.3351 18.9422 30.5796 18.5141L34.1518 12.2627C34.4066 11.8404 34.9555 11.7045 35.3778 11.9593C35.786 12.2055 35.9288 12.7291 35.7022 13.1486L32.1299 19.4C31.9717 19.6772 31.6775 19.8488 31.3583 19.8501Z" fill="#FFEA00"/>
<path d="M36.7163 10.0263C37.2095 10.0263 37.6094 9.62651 37.6094 9.13329C37.6094 8.64007 37.2095 8.24023 36.7163 8.24023C36.2231 8.24023 35.8232 8.64007 35.8232 9.13329C35.8232 9.62651 36.2231 10.0263 36.7163 10.0263Z" fill="#FFEA00"/>
<path d="M19.7485 2.88206C20.2417 2.88206 20.6416 2.48223 20.6416 1.989C20.6416 1.49578 20.2417 1.09595 19.7485 1.09595C19.2553 1.09595 18.8555 1.49578 18.8555 1.989C18.8555 2.48223 19.2553 2.88206 19.7485 2.88206Z" fill="#FFEA00"/>
<path d="M32.251 2.88206C32.7442 2.88206 33.144 2.48223 33.144 1.989C33.144 1.49578 32.7442 1.09595 32.251 1.09595C31.7577 1.09595 31.3579 1.49578 31.3579 1.989C31.3579 2.48223 31.7577 2.88206 32.251 2.88206Z" fill="#FFEA00"/>
<path d="M41.1821 20.7431C40.6889 20.7425 40.2895 20.3422 40.29 19.849C40.2903 19.6329 40.369 19.4241 40.5114 19.2615L46.7628 12.117C47.1089 11.7656 47.6743 11.7613 48.0257 12.1073C48.3492 12.4259 48.3822 12.9365 48.1024 13.2941L41.851 20.4385C41.6821 20.6313 41.4384 20.7423 41.1821 20.7431Z" fill="#FFEA00"/>
<path d="M50.1128 10.9194C50.606 10.9194 51.0058 10.5196 51.0058 10.0264C51.0058 9.53314 50.606 9.1333 50.1128 9.1333C49.6196 9.1333 49.2197 9.53314 49.2197 10.0264C49.2197 10.5196 49.6196 10.9194 50.1128 10.9194Z" fill="#FFEA00"/>
<path d="M17.0698 11.8125C17.563 11.8125 17.9629 11.4126 17.9629 10.9194C17.9629 10.4262 17.563 10.0264 17.0698 10.0264C16.5766 10.0264 16.1768 10.4262 16.1768 10.9194C16.1768 11.4126 16.5766 11.8125 17.0698 11.8125Z" fill="#FFEA00"/>
<path d="M2.78075 2.88206C3.27397 2.88206 3.67381 2.48223 3.67381 1.989C3.67381 1.49578 3.27397 1.09595 2.78075 1.09595C2.28753 1.09595 1.8877 1.49578 1.8877 1.989C1.8877 2.48223 2.28753 2.88206 2.78075 2.88206Z" fill="#FFEA00"/>
<path d="M12.604 19.85C12.2902 19.8502 11.9994 19.6858 11.8378 19.4169L9.15861 14.9516C8.89695 14.5336 9.02376 13.9824 9.44194 13.7209C9.86 13.4592 10.4111 13.586 10.6727 14.0042C10.6784 14.0133 10.684 14.0225 10.6893 14.0319L13.3685 18.4972C13.6224 18.9199 13.4857 19.4686 13.0628 19.7227C12.9243 19.8057 12.7657 19.8498 12.604 19.85Z" fill="#FFEA00"/>
<path d="M5.45947 44.8557L25.9998 52.0001V26.9946L5.45947 19.8501V44.8557Z" fill="#40916C"/>
<path d="M46.5403 44.8557L26 52.0001V26.9946L46.5403 19.8501V44.8557Z" fill="#95D5B2"/>
<path d="M46.5403 32.987L33.1444 37.7112C33.1474 41.2627 36.023 44.1422 39.5745 44.1502C40.2693 44.1482 40.9595 44.0366 41.6196 43.8197L46.5403 42.1765V44.8557L26 52.0001V26.9946L46.5403 19.8501V32.987Z" fill="#52B788"/>
<path d="M51.8986 27.8876L31.3583 35.9251L26 26.9946L46.5403 19.8501L51.8986 27.8876Z" fill="#D8F3DC"/>
<path d="M0.101562 27.8876L20.6419 35.9251L26.0002 26.9946L5.4599 19.8501L0.101562 27.8876Z" fill="#D8F3DC"/>
<path d="M25.9998 46.6417L5.45947 39.4973V35.032L25.9998 42.1764V46.6417Z" fill="#C62828"/>
<path d="M26 46.6417L46.5403 39.4973V35.032L26 42.1764V46.6417Z" fill="#EF5350"/>
<path d="M36.1094 43.123L26 46.6417V42.1764L33.4302 39.5955C33.8711 41.0547 34.8219 42.3068 36.1094 43.123Z" fill="#E53935"/>
<path d="M51.8986 27.8876L31.3583 35.9251L26 26.9945L29.6973 25.7085C31.733 29.0197 35.8465 30.3997 39.4673 28.9861L49.9071 24.9048L51.8986 27.8876Z" fill="#95D5B2"/>
<path d="M22.3565 33.0673L20.6419 35.9251L0.101562 27.8876L5.4599 19.8501L8.25517 20.8235C6.99585 24.0418 8.58292 27.6717 11.8006 28.9325L22.3565 33.0673Z" fill="#95D5B2"/>
<path d="M24.2141 23.4223C23.7209 23.4223 23.321 23.0224 23.321 22.5292V22.3765C23.3251 20.9951 22.7761 19.6694 21.7966 18.6953C21.454 18.3406 21.4638 17.7752 21.8185 17.4326C22.1646 17.0983 22.7133 17.0983 23.0593 17.4326C24.3748 18.7409 25.1121 20.5212 25.1071 22.3765V22.5292C25.1071 23.0224 24.7072 23.4223 24.2141 23.4223Z" fill="#FFEA00"/>
</g>
<defs>
<clipPath id="clip0_1377_2261">
<rect width="52" height="52" fill="white"/>
</clipPath>
</defs>
</svg>
