<svg width="54" height="54" viewBox="0 0 54 54" fill="none" xmlns="http://www.w3.org/2000/svg">
<path d="M27 1.3501C12.8565 1.3501 1.35001 12.8565 1.35001 27.0001C1.35001 41.1437 12.8565 52.6501 27 52.6501C41.1436 52.6501 52.65 41.1436 52.65 27.0001C52.65 12.8565 41.1436 1.3501 27 1.3501ZM42.5703 42.4514C40.6036 38.4068 36.4572 35.6153 31.6593 35.6153H22.3407C17.5428 35.6153 13.3965 38.4068 11.4297 42.4514C7.49036 38.482 5.05207 33.021 5.05207 27.0001C5.05207 14.8979 14.8981 5.05216 27 5.05216C39.1019 5.05216 48.9479 14.8979 48.9479 27.0001C48.9479 33.021 46.5097 38.482 42.5703 42.4514Z" fill="#B2BABC"/>
<path d="M27 31.9311C32.4467 31.9311 36.862 27.5157 36.862 22.069C36.862 16.6224 32.4467 12.207 27 12.207C21.5534 12.207 17.138 16.6224 17.138 22.069C17.138 27.5157 21.5534 31.9311 27 31.9311Z" fill="#B2BABC"/>
<circle cx="45" cy="7.5" r="5" fill="#F5585B"/>
</svg>
