<svg width="18" height="18" viewBox="0 0 18 18" fill="none" xmlns="http://www.w3.org/2000/svg">
<path d="M15 4.68752H14.43C14.2554 4.68963 14.0837 4.64211 13.935 4.5505C13.7863 4.45889 13.6667 4.32695 13.59 4.17002L12.915 2.82752C12.7451 2.48381 12.482 2.19472 12.1558 1.99318C11.8296 1.79163 11.4534 1.68573 11.07 1.68752H6.93C6.54658 1.68573 6.17035 1.79163 5.84416 1.99318C5.51798 2.19472 5.25494 2.48381 5.085 2.82752L4.41 4.17002C4.33333 4.32695 4.2137 4.45889 4.065 4.5505C3.91629 4.64211 3.74464 4.68963 3.57 4.68752H3C2.45299 4.68752 1.92839 4.90482 1.54159 5.29162C1.1548 5.67841 0.9375 6.20301 0.9375 6.75002V14.25C0.9375 14.797 1.1548 15.3216 1.54159 15.7084C1.92839 16.0952 2.45299 16.3125 3 16.3125H15C15.547 16.3125 16.0716 16.0952 16.4584 15.7084C16.8452 15.3216 17.0625 14.797 17.0625 14.25V6.75002C17.0625 6.20301 16.8452 5.67841 16.4584 5.29162C16.0716 4.90482 15.547 4.68752 15 4.68752ZM9 13.6875C8.22124 13.6875 7.45996 13.4566 6.81244 13.0239C6.16492 12.5913 5.66024 11.9763 5.36222 11.2568C5.0642 10.5374 4.98623 9.74566 5.13816 8.98185C5.29009 8.21805 5.6651 7.51646 6.21577 6.96579C6.76644 6.41512 7.46803 6.04011 8.23183 5.88818C8.99563 5.73625 9.78733 5.81423 10.5068 6.11225C11.2263 6.41027 11.8413 6.91495 12.2739 7.56247C12.7066 8.20998 12.9375 8.97126 12.9375 9.75002C12.9355 10.7937 12.52 11.7941 11.782 12.5321C11.044 13.2701 10.0437 13.6855 9 13.6875Z" fill="#8D999B"/>
<path d="M9 12.5625C10.5533 12.5625 11.8125 11.3033 11.8125 9.75C11.8125 8.1967 10.5533 6.9375 9 6.9375C7.4467 6.9375 6.1875 8.1967 6.1875 9.75C6.1875 11.3033 7.4467 12.5625 9 12.5625Z" fill="#8D999B"/>
</svg>
