<svg width="18" height="18" viewBox="0 0 18 18" fill="none" xmlns="http://www.w3.org/2000/svg">
<g clip-path="url(#clip0_713_785)">
<path d="M9 0.5625C7.33122 0.5625 5.69992 1.05735 4.31238 1.98448C2.92484 2.9116 1.84338 4.22936 1.20477 5.77111C0.566156 7.31286 0.399065 9.00936 0.724628 10.6461C1.05019 12.2828 1.85378 13.7862 3.03379 14.9662C4.2138 16.1462 5.71721 16.9498 7.35393 17.2754C8.99064 17.6009 10.6871 17.4338 12.2289 16.7952C13.7706 16.1566 15.0884 15.0752 16.0155 13.6876C16.9427 12.3001 17.4375 10.6688 17.4375 9C17.435 6.76301 16.5452 4.61837 14.9634 3.03658C13.3816 1.45479 11.237 0.565031 9 0.5625ZM11.25 5.625C11.4725 5.625 11.69 5.69098 11.875 5.8146C12.06 5.93821 12.2042 6.11391 12.2894 6.31948C12.3745 6.52505 12.3968 6.75125 12.3534 6.96948C12.31 7.18771 12.2028 7.38816 12.0455 7.5455C11.8882 7.70283 11.6877 7.80998 11.4695 7.85338C11.2513 7.89679 11.0251 7.87451 10.8195 7.78936C10.6139 7.70422 10.4382 7.56002 10.3146 7.37502C10.191 7.19001 10.125 6.9725 10.125 6.75C10.125 6.45163 10.2435 6.16548 10.4545 5.9545C10.6655 5.74353 10.9516 5.625 11.25 5.625ZM6.75 5.625C6.97251 5.625 7.19001 5.69098 7.37502 5.8146C7.56003 5.93821 7.70422 6.11391 7.78937 6.31948C7.87452 6.52505 7.8968 6.75125 7.85339 6.96948C7.80998 7.18771 7.70283 7.38816 7.5455 7.5455C7.38816 7.70283 7.18771 7.80998 6.96948 7.85338C6.75125 7.89679 6.52505 7.87451 6.31949 7.78936C6.11392 7.70422 5.93822 7.56002 5.8146 7.37502C5.69098 7.19001 5.625 6.9725 5.625 6.75C5.625 6.45163 5.74353 6.16548 5.95451 5.9545C6.16549 5.74353 6.45164 5.625 6.75 5.625ZM13.3875 11.5312C12.9432 12.3011 12.3041 12.9403 11.5344 13.3848C10.7648 13.8293 9.89162 14.0633 9.00282 14.0633C8.11401 14.0633 7.24088 13.8293 6.47119 13.3848C5.7015 12.9403 5.0624 12.3011 4.61813 11.5312C4.57851 11.4672 4.55216 11.3959 4.54062 11.3215C4.52909 11.2471 4.53261 11.1711 4.55098 11.0981C4.56935 11.0251 4.6022 10.9565 4.64757 10.8964C4.69294 10.8363 4.74991 10.7859 4.81511 10.7482C4.88031 10.7106 4.9524 10.6864 5.02713 10.6771C5.10185 10.6678 5.17767 10.6736 5.25011 10.6942C5.32254 10.7148 5.39011 10.7497 5.44881 10.7968C5.5075 10.844 5.55613 10.9024 5.59182 10.9688C5.93727 11.5678 6.43439 12.0653 7.03318 12.4112C7.63197 12.7572 8.31129 12.9393 9.00282 12.9393C9.69434 12.9393 10.3737 12.7572 10.9725 12.4112C11.5712 12.0653 12.0684 11.5678 12.4138 10.9688C12.4495 10.9024 12.4981 10.844 12.5568 10.7968C12.6155 10.7497 12.6831 10.7148 12.7555 10.6942C12.828 10.6736 12.9038 10.6678 12.9785 10.6771C13.0532 10.6864 13.1253 10.7106 13.1905 10.7482C13.2557 10.7859 13.3127 10.8363 13.3581 10.8964C13.4034 10.9565 13.4363 11.0251 13.4547 11.0981C13.473 11.1711 13.4765 11.2471 13.465 11.3215C13.4535 11.3959 13.4271 11.4672 13.3875 11.5312Z" fill="#8D999B"/>
</g>
<defs>
<clipPath id="clip0_713_785">
<rect width="18" height="18" fill="white"/>
</clipPath>
</defs>
</svg>
