<svg width="18" height="18" viewBox="0 0 18 18" fill="none" xmlns="http://www.w3.org/2000/svg">
<g clip-path="url(#clip0_710_705)">
<path d="M14.5773 2.49372C13.2524 1.16876 11.0964 1.16876 9.77141 2.49372L3.80696 8.45816C1.96962 10.2955 1.96962 13.2846 3.80696 15.122C5.64431 16.9593 8.63345 16.9593 10.4708 15.122L12.9887 12.6041C13.2896 12.3032 13.2896 11.8149 12.9887 11.514C12.6878 11.2131 12.1996 11.2131 11.8987 11.514L9.38073 14.0319C8.14448 15.2682 6.13327 15.2682 4.89702 14.0319C3.66077 12.7957 3.66077 10.7845 4.89702 9.54822L10.8615 3.58378C11.5853 2.85991 12.7634 2.85991 13.4873 3.58378C14.2111 4.30764 14.2111 5.4857 13.4873 6.20957L7.845 11.8518C7.63316 12.0637 7.28897 12.0637 7.07713 11.8518C6.8653 11.64 6.8653 11.2958 7.07713 11.084L11.0666 7.09453C11.3675 6.79363 11.3675 6.30537 11.0666 6.00447C10.7657 5.70357 10.2774 5.70357 9.9765 6.00447L5.98708 9.9939C5.17415 10.8068 5.17415 12.1289 5.98708 12.9419C6.80001 13.7548 8.12213 13.7548 8.93506 12.9419L14.5773 7.29962C15.9023 5.97466 15.9023 3.81868 14.5773 2.49372Z" fill="#8D999B"/>
</g>
<defs>
<clipPath id="clip0_710_705">
<rect width="15" height="15" fill="white" transform="translate(1.5 1.5)"/>
</clipPath>
</defs>
</svg>
