<svg width="80" height="80" viewBox="0 0 80 80" fill="none" xmlns="http://www.w3.org/2000/svg">
<path fill-rule="evenodd" clip-rule="evenodd" d="M35.8 12.0874C36.1838 9.71863 37.2688 7.53613 40 7.53613C41.7275 7.53613 42.8038 8.41113 43.4488 9.65488C44.155 11.0161 44.375 12.7861 44.375 14.4111C44.375 14.7561 44.655 15.0361 45 15.0361C45.345 15.0361 45.625 14.7561 45.625 14.4111C45.625 12.5874 45.35 10.6074 44.5588 9.07988C43.7063 7.43613 42.2825 6.28613 40 6.28613C36.5588 6.28613 35.05 8.90113 34.5663 11.8874C34.51 12.2286 34.7425 12.5499 35.0825 12.6049C35.4225 12.6599 35.7438 12.4286 35.8 12.0874Z" fill="#B2BABC"/>
<path fill-rule="evenodd" clip-rule="evenodd" d="M40 58.7139C29.4938 58.7139 20.9938 60.2601 16.405 62.4939C14.2625 63.5351 12.945 64.7639 12.5313 66.0176C12.2875 66.7576 12.4538 67.4964 13.04 68.2014C13.51 68.7701 14.2825 69.3289 15.325 69.8476C19.7925 72.0714 29.4975 73.7139 40 73.7139C50.5025 73.7139 60.2075 72.0714 64.675 69.8476C65.7175 69.3289 66.49 68.7701 66.96 68.2014C67.5463 67.4964 67.7125 66.7576 67.4688 66.0176C67.055 64.7639 65.7375 63.5351 63.595 62.4939C59.0063 60.2601 50.5063 58.7139 40 58.7139ZM40 59.9639C48.8113 59.9639 56.1838 61.0539 60.9375 62.7439C62.7725 63.3951 64.2075 64.1314 65.1625 64.9351C65.725 65.4089 66.1125 65.8964 66.2813 66.4089C66.3938 66.7501 66.2688 67.0789 65.9988 67.4039C65.6138 67.8676 64.9688 68.3051 64.1188 68.7289C59.7525 70.9014 50.2625 72.4639 40 72.4639C29.7375 72.4639 20.2475 70.9014 15.8813 68.7289C15.0313 68.3051 14.3863 67.8676 14.0013 67.4039C13.7313 67.0789 13.6063 66.7501 13.7188 66.4089C13.8875 65.8964 14.275 65.4089 14.8375 64.9351C15.7925 64.1314 17.2275 63.3951 19.0625 62.7439C23.8163 61.0539 31.1888 59.9639 40 59.9639Z" fill="#B2BABC"/>
<path fill-rule="evenodd" clip-rule="evenodd" d="M45.4012 62.1238C45.5475 62.6238 45.625 63.1525 45.625 63.6988C45.625 66.8038 43.105 69.3238 40 69.3238C36.895 69.3238 34.375 66.8038 34.375 63.6988C34.375 62.2175 34.9487 60.87 35.8862 59.865C36.1212 59.6125 36.1075 59.2163 35.855 58.9813C35.6025 58.7463 35.2075 58.76 34.9725 59.0125C33.8263 60.24 33.125 61.8888 33.125 63.6988C33.125 67.4938 36.205 70.5738 40 70.5738C43.795 70.5738 46.875 67.4938 46.875 63.6988C46.875 63.0313 46.7787 62.385 46.6012 61.7738C46.505 61.4425 46.1575 61.2525 45.8262 61.3488C45.495 61.445 45.305 61.7925 45.4012 62.1238Z" fill="#B2BABC"/>
<path fill-rule="evenodd" clip-rule="evenodd" d="M21.875 36.7424C21.875 35.9824 21.875 35.1912 21.875 34.3787C21.875 34.0337 21.595 33.7537 21.25 33.7537C20.905 33.7537 20.625 34.0337 20.625 34.3787V36.7424C20.625 37.0874 20.905 37.3674 21.25 37.3674C21.595 37.3674 21.875 37.0874 21.875 36.7424Z" fill="#B2BABC"/>
<path fill-rule="evenodd" clip-rule="evenodd" d="M26.8175 19.7313C29.9825 16.5663 34.275 14.7888 38.75 14.7888H41.25C45.725 14.7888 50.0175 16.5663 53.1825 19.7313C54.0063 20.5551 54.7363 21.4563 55.365 22.4163C55.555 22.7051 55.9425 22.7851 56.2313 22.5963C56.5188 22.4076 56.6 22.0201 56.4113 21.7313C55.735 20.7001 54.9513 19.7326 54.0663 18.8476C50.6675 15.4488 46.0575 13.5388 41.25 13.5388H38.75C33.9425 13.5388 29.3325 15.4488 25.9338 18.8476C25.69 19.0913 25.69 19.4876 25.9338 19.7313C26.1775 19.9751 26.5738 19.9751 26.8175 19.7313Z" fill="#B2BABC"/>
<path fill-rule="evenodd" clip-rule="evenodd" d="M58.125 35.5613V36.86C58.125 38.7763 58.2488 40.6875 58.495 42.5825C58.54 42.9238 58.8537 43.165 59.1962 43.1213C59.5375 43.0763 59.78 42.7625 59.735 42.4213C59.4962 40.58 59.375 38.7225 59.375 36.86V35.5613C59.375 35.2163 59.095 34.9363 58.75 34.9363C58.405 34.9363 58.125 35.2163 58.125 35.5613Z" fill="#B2BABC"/>
<path fill-rule="evenodd" clip-rule="evenodd" d="M66.2076 66.2161L66.2913 66.4361C66.4126 66.7536 66.7638 66.9161 67.0838 66.8024C67.4038 66.6886 67.5751 66.3399 67.4688 66.0174C67.4413 65.9336 67.4088 65.8499 67.3738 65.7661L64.8738 59.2149C64.7501 58.8936 64.3888 58.7311 64.0663 58.8549C63.7438 58.9774 63.5826 59.3386 63.7051 59.6611L65.1138 63.3524C64.6663 63.0549 64.1601 62.7674 63.5951 62.4936C59.0063 60.2599 50.5063 58.7136 40.0001 58.7136C31.5788 58.7136 24.4476 59.7036 19.5951 61.2461C17.6426 61.8661 16.0513 62.5874 14.8701 63.3686L19.0026 52.4486C19.7551 50.4586 20.3626 48.4211 20.8226 46.3524C20.9538 45.7561 21.0738 45.1586 21.1813 44.5586C21.2426 44.2186 21.0163 43.8936 20.6763 43.8324C20.3363 43.7724 20.0113 43.9986 19.9513 44.3386C19.8463 44.9211 19.7301 45.5024 19.6013 46.0811C19.1551 48.0924 18.5651 50.0724 17.8338 52.0061C15.4888 58.2011 12.5401 65.9924 12.5401 65.9924C12.4226 66.3049 12.5701 66.6536 12.8763 66.7874C13.1826 66.9199 13.5388 66.7886 13.6863 66.4886L14.0126 65.8224C14.8826 64.5286 16.9751 63.3899 19.9738 62.4374C24.7363 60.9236 31.7351 59.9636 40.0001 59.9636C48.8113 59.9636 56.1838 61.0536 60.9376 62.7436C62.7726 63.3949 64.2076 64.1311 65.1626 64.9349C65.6538 65.3486 66.0113 65.7736 66.2076 66.2161Z" fill="#B2BABC"/>
<path fill-rule="evenodd" clip-rule="evenodd" d="M5.45011 26.3738C9.89636 30.0763 13.9876 31.8925 17.2676 32.3363C19.9926 32.705 22.2126 32.1425 23.7514 30.965C25.3664 29.7313 26.2926 27.8113 26.2501 25.3913C26.2076 22.9925 25.3089 21.285 24.0914 20.195C21.0614 17.4813 15.9839 18.5613 15.0326 22.6288C14.8764 23.3013 15.2939 23.9738 15.9651 24.1313C16.6376 24.2875 17.3101 23.87 17.4676 23.1988C17.9826 20.9925 20.7801 20.585 22.4226 22.0575C23.2089 22.76 23.7226 23.8875 23.7501 25.435C23.7726 26.7175 23.4114 27.7938 22.6876 28.5688C21.9514 29.3563 20.8601 29.815 19.5189 29.9238C16.3526 30.18 11.9776 28.555 7.05011 24.4525C6.52011 24.0113 5.73136 24.0838 5.28886 24.6138C4.84761 25.1438 4.92011 25.9325 5.45011 26.3738Z" fill="#3EDB97"/>
<path fill-rule="evenodd" clip-rule="evenodd" d="M5.37617 37.5574C10.1024 42.1749 19.8649 43.4187 27.9462 40.3312C36.2237 37.1699 38.7049 34.3287 44.1699 32.3762C44.8199 32.1437 45.1587 31.4274 44.9274 30.7774C44.6949 30.1287 43.9787 29.7899 43.3299 30.0212C37.8474 31.9799 35.3574 34.8249 27.0537 37.9962C19.9262 40.7187 11.2912 39.8412 7.12367 35.7699C6.62992 35.2874 5.83742 35.2962 5.35617 35.7899C4.87367 36.2837 4.88242 37.0749 5.37617 37.5574Z" fill="#3EDB97"/>
<path fill-rule="evenodd" clip-rule="evenodd" d="M50.5624 30.2801C52.7324 29.1863 57.0687 28.1263 59.5512 29.0801C60.1949 29.3276 60.9187 29.0063 61.1662 28.3626C61.4137 27.7188 61.0924 26.9951 60.4487 26.7476C57.4137 25.5801 52.0912 26.7101 49.4374 28.0476C48.8212 28.3576 48.5737 29.1101 48.8837 29.7263C49.1937 30.3426 49.9462 30.5901 50.5624 30.2801Z" fill="#3EDB97"/>
<path fill-rule="evenodd" clip-rule="evenodd" d="M55.6363 27.3661C55.155 29.8586 56.3025 31.8211 58.27 32.9911C61.0525 34.6461 65.5513 34.6599 69.1075 32.1761C72.235 29.9924 73.82 29.7849 73.82 29.7849C74.01 29.7636 74.1788 29.6561 74.28 29.4949C74.3813 29.3324 74.4025 29.1336 74.3388 28.9536C72.5413 23.9261 66.8825 20.9899 62.2588 21.4286C59.0738 21.7299 56.3675 23.5824 55.6363 27.3661Z" fill="#3EDB97"/>
<path fill-rule="evenodd" clip-rule="evenodd" d="M39.5574 55.1174C44.2611 51.1386 51.2786 48.0099 56.5436 47.7261C59.5111 47.5661 61.9174 48.2724 62.5386 50.7211C62.8249 51.8486 62.7299 52.7986 62.3511 53.5549C61.7849 54.6861 60.6236 55.3586 59.4199 55.5849C58.1274 55.8261 56.7386 55.5786 55.9736 54.6286C55.5399 54.0924 54.7524 54.0074 54.2149 54.4399C53.6786 54.8736 53.5936 55.6611 54.0261 56.1986C55.3399 57.8261 57.6636 58.4574 59.8811 58.0411C61.8349 57.6749 63.6674 56.5099 64.5861 54.6749C65.1974 53.4536 65.4236 51.9249 64.9611 50.1061C64.0486 46.5086 60.7674 44.9949 56.4099 45.2299C50.6911 45.5374 43.0511 48.8886 37.9424 53.2086C37.4161 53.6549 37.3499 54.4436 37.7949 54.9711C38.2411 55.4974 39.0299 55.5636 39.5574 55.1174Z" fill="#3EDB97"/>
</svg>
