<svg width="80" height="80" viewBox="0 0 80 80" fill="none" xmlns="http://www.w3.org/2000/svg">
<path fill-rule="evenodd" clip-rule="evenodd" d="M44.1975 16.2551H15C12.9288 16.2551 11.25 17.9338 11.25 20.0051H68.75V14.7188C68.75 13.2101 67.5275 11.9863 66.0187 11.9863C62.1675 11.9863 52.2325 11.9863 48.75 11.9863C47.4425 11.9863 46.2363 12.6876 45.5875 13.8213L44.1975 16.2551Z" fill="#3EDB97"/>
<path fill-rule="evenodd" clip-rule="evenodd" d="M69.9587 54.7875C71.1624 46.12 72.6749 35.2362 73.5787 28.7237C73.8024 27.1125 73.3174 25.4837 72.2499 24.2562C71.1812 23.03 69.6349 22.325 68.0074 22.325C55.2624 22.325 24.7374 22.325 11.9924 22.325C10.3649 22.325 8.81866 23.03 7.74991 24.2562C6.68241 25.4837 6.19741 27.1125 6.42116 28.7237C6.86366 31.9125 7.68366 37.8162 8.30991 42.3262C8.35741 42.6687 8.67366 42.9074 9.01491 42.8599C9.35616 42.8124 9.59616 42.4962 9.54866 42.1549L7.65866 28.5524C7.48491 27.2987 7.86241 26.0312 8.69241 25.0775C9.52366 24.1237 10.7274 23.575 11.9924 23.575H68.0074C69.2724 23.575 70.4762 24.1237 71.3074 25.0775C72.1374 26.0312 72.5149 27.2987 72.3412 28.5524L68.7212 54.615C68.6737 54.9575 68.9124 55.2724 69.2537 55.32C69.5962 55.3675 69.9112 55.1287 69.9587 54.7875Z" fill="#B2BABC"/>
<path fill-rule="evenodd" clip-rule="evenodd" d="M8.87487 46.3975C9.79987 53.0513 10.7099 59.6038 11.2824 63.7238C11.6686 66.505 14.0461 68.575 16.8536 68.575H63.1461C65.2999 68.575 67.2011 67.3575 68.1436 65.535C68.3024 65.2288 68.1824 64.8513 67.8761 64.6925C67.5686 64.5338 67.1911 64.6538 67.0336 64.96C66.2999 66.3775 64.8211 67.325 63.1461 67.325C52.8586 67.325 27.1411 67.325 16.8536 67.325C14.6699 67.325 12.8199 65.715 12.5199 63.5525C11.9474 59.4313 11.0374 52.8788 10.1136 46.2263C10.0661 45.8838 9.74987 45.645 9.40862 45.6925C9.06737 45.74 8.82862 46.0563 8.87487 46.3975Z" fill="#B2BABC"/>
<path fill-rule="evenodd" clip-rule="evenodd" d="M18.7512 57.9824C18.7512 59.7087 20.1512 61.1074 21.8762 61.1074H31.8762C33.6025 61.1074 35.0012 59.7087 35.0012 57.9824V55.4824C35.0012 53.7574 33.6025 52.3574 31.8762 52.3574H21.8762C20.6875 52.3574 19.6525 53.0224 19.125 54.0012C18.9612 54.3049 19.075 54.6837 19.3787 54.8474C19.6812 55.0112 20.0612 54.8974 20.225 54.5949C20.5412 54.0074 21.1625 53.6074 21.8762 53.6074H31.8762C32.9125 53.6074 33.7512 54.4474 33.7512 55.4824V57.9824C33.7512 59.0187 32.9125 59.8574 31.8762 59.8574H21.8762C20.8412 59.8574 20.0012 59.0187 20.0012 57.9824C20.0012 57.6374 19.7212 57.3574 19.3762 57.3574C19.0312 57.3574 18.7512 57.6374 18.7512 57.9824Z" fill="#B2BABC"/>
<path fill-rule="evenodd" clip-rule="evenodd" d="M53.125 32.625C46.2262 32.625 40.625 38.2262 40.625 45.125C40.625 52.0237 46.2262 57.625 53.125 57.625C60.0238 57.625 65.625 52.0237 65.625 45.125C65.625 38.2262 60.0238 32.625 53.125 32.625ZM53.125 35.125C58.6437 35.125 63.125 39.6062 63.125 45.125C63.125 50.6437 58.6437 55.125 53.125 55.125C47.6062 55.125 43.125 50.6437 43.125 45.125C43.125 39.6062 47.6062 35.125 53.125 35.125Z" fill="#3EDB97"/>
<path fill-rule="evenodd" clip-rule="evenodd" d="M60.4037 53.7476L72.0637 65.4076C72.5512 65.8951 73.3437 65.8951 73.8312 65.4076C74.3187 64.9201 74.3187 64.1276 73.8312 63.6401L62.1712 51.9801C61.6837 51.4913 60.8912 51.4913 60.4037 51.9801C59.9162 52.4676 59.9162 53.2601 60.4037 53.7476Z" fill="#3EDB97"/>
</svg>
