<svg width="80" height="80" viewBox="0 0 80 80" fill="none" xmlns="http://www.w3.org/2000/svg">
<path fill-rule="evenodd" clip-rule="evenodd" d="M64.6375 28.7788V37.0626C64.6375 37.4076 64.9175 37.6876 65.2625 37.6876C65.6075 37.6876 65.8875 37.4076 65.8875 37.0626V28.7788C65.8875 28.4338 65.6075 28.1538 65.2625 28.1538C64.9175 28.1538 64.6375 28.4338 64.6375 28.7788Z" fill="#B2BABC"/>
<path fill-rule="evenodd" clip-rule="evenodd" d="M61.0689 67.5388C60.7739 68.2125 60.4539 68.8488 60.1064 69.435C59.9939 69.6225 59.7914 69.7363 59.5726 69.7363C54.7789 69.7375 26.3901 69.7375 18.4526 69.7375C18.2339 69.7375 18.0301 69.6225 17.9176 69.435C17.8039 69.2463 17.7989 69.0125 17.9014 68.8188C17.9076 68.8088 17.9126 68.7975 17.9176 68.7875C21.8389 60.2738 22.1376 45.4563 22.1376 45.4563V38.2913C22.1376 37.9463 21.8576 37.6663 21.5126 37.6663C21.1676 37.6663 20.8876 37.9463 20.8876 38.2913V45.4375C20.8814 45.7575 20.5764 60.005 16.7914 68.2438C16.4889 68.8288 16.5101 69.52 16.8451 70.0775C17.1839 70.6413 17.7939 70.9875 18.4514 70.9875C26.3889 70.9875 54.7801 70.9875 59.5726 70.9863C60.2301 70.9863 60.8389 70.6425 61.1776 70.08C61.1789 70.0788 61.1789 70.0763 61.1801 70.075C61.5526 69.4463 61.8976 68.7638 62.2139 68.0413C62.3526 67.725 62.2089 67.3563 61.8926 67.2175C61.5764 67.0788 61.2076 67.2225 61.0689 67.5388Z" fill="#B2BABC"/>
<path fill-rule="evenodd" clip-rule="evenodd" d="M22.1375 13.6862V10.8875C22.1375 10.5425 22.4175 10.2625 22.7625 10.2625H47.84C48.185 10.2625 48.465 9.98245 48.465 9.63745C48.465 9.29245 48.185 9.01245 47.84 9.01245C47.84 9.01245 27.9912 9.01245 22.7625 9.01245C21.7275 9.01245 20.8875 9.8512 20.8875 10.8875V13.6862C20.8875 14.0312 21.1675 14.3112 21.5125 14.3112C21.8575 14.3112 22.1375 14.0312 22.1375 13.6862Z" fill="#B2BABC"/>
<path fill-rule="evenodd" clip-rule="evenodd" d="M50.9651 9.01245H50.9538C50.8376 9.01245 50.7201 9.04495 50.6176 9.1112C50.4001 9.24995 50.2901 9.5112 50.3438 9.76495C51.2651 14.1662 51.7176 18.62 51.2713 23.1737C51.2101 23.7475 51.4213 24.3225 51.8426 24.7225C52.1926 25.055 52.6526 25.2375 53.1276 25.2387H53.1538C53.2438 25.2375 53.3338 25.23 53.4238 25.2162C54.9888 24.9737 56.5401 24.8312 58.0688 24.8337H58.1601C60.5126 24.8462 62.8126 25.2075 65.0326 26.0837C65.1063 26.1125 65.1826 26.1262 65.2588 26.1275H65.2701C65.4451 26.125 65.6151 26.0487 65.7351 25.9112C65.9088 25.7112 65.9363 25.4225 65.8051 25.1924C62.2788 19.0275 57.4476 13.6787 51.3276 9.13495C51.2201 9.05495 51.0926 9.0137 50.9651 9.01245Z" fill="#3EDB97"/>
<path fill-rule="evenodd" clip-rule="evenodd" d="M65.8274 39.375C58.5824 39.375 52.7024 45.2562 52.7024 52.5C52.7024 59.7437 58.5824 65.625 65.8274 65.625C73.0711 65.625 78.9524 59.7437 78.9524 52.5C78.9524 45.2562 73.0711 39.375 65.8274 39.375ZM65.8274 40.625C72.3811 40.625 77.7024 45.9462 77.7024 52.5C77.7024 59.0537 72.3811 64.375 65.8274 64.375C59.2724 64.375 53.9524 59.0537 53.9524 52.5C53.9524 45.9462 59.2724 40.625 65.8274 40.625Z" fill="#B2BABC"/>
<path fill-rule="evenodd" clip-rule="evenodd" d="M60.524 48.9644L69.3629 57.8033C69.8508 58.2912 70.6427 58.2912 71.1306 57.8033C71.6185 57.3154 71.6185 56.5234 71.1306 56.0355L62.2918 47.1967C61.8039 46.7088 61.0119 46.7088 60.524 47.1967C60.0361 47.6846 60.0361 48.4765 60.524 48.9644Z" fill="#3EDB97"/>
<path fill-rule="evenodd" clip-rule="evenodd" d="M69.3629 47.1967L60.524 56.0356C60.0361 56.5235 60.0361 57.3154 60.524 57.8033C61.0119 58.2912 61.8039 58.2912 62.2918 57.8033L71.1306 48.9645C71.6185 48.4766 71.6185 47.6846 71.1306 47.1967C70.6427 46.7088 69.8508 46.7088 69.3629 47.1967Z" fill="#3EDB97"/>
<path fill-rule="evenodd" clip-rule="evenodd" d="M28.2976 28.5187L30.8601 27.4824C31.5688 27.1962 32.0326 26.5087 32.0326 25.7437C32.0326 24.9799 31.5676 24.2924 30.8601 24.0062C30.0726 23.6874 29.1901 23.3312 28.3001 22.9712C24.6863 21.5112 21.8201 18.6462 20.3588 15.0324L19.3213 12.4674C19.0351 11.7587 18.3476 11.2949 17.5826 11.2949C16.8188 11.2949 16.1313 11.7587 15.8451 12.4674L14.8113 15.0249C13.3513 18.6387 10.4863 21.5049 6.8726 22.9662C5.97885 23.3287 5.0926 23.6862 4.30385 24.0062C3.5951 24.2924 3.13135 24.9799 3.13135 25.7437C3.13135 26.5087 3.5951 27.1962 4.30385 27.4824C5.09385 27.8012 5.9801 28.1599 6.87385 28.5224C10.4876 29.9837 13.3526 32.8499 14.8126 36.4637L15.8451 39.0199C16.1313 39.7287 16.8188 40.1924 17.5826 40.1924C18.3476 40.1924 19.0351 39.7287 19.3213 39.0199C19.6401 38.2337 19.9976 37.3499 20.3576 36.4587C21.8176 32.8449 24.6838 29.9787 28.2976 28.5187ZM30.3913 26.3237L27.8288 27.3599C23.9013 28.9474 20.7863 32.0624 19.1988 35.9899C18.8376 36.8812 18.4813 37.7649 18.1626 38.5524C18.0676 38.7874 17.8376 38.9424 17.5838 38.9424C17.3288 38.9424 17.0988 38.7874 17.0038 38.5512L15.9713 35.9962C14.3838 32.0674 11.2701 28.9524 7.3426 27.3637L4.7726 26.3237C4.53635 26.2274 4.38135 25.9987 4.38135 25.7437C4.38135 25.4899 4.53635 25.2599 4.7726 25.1649L7.34135 24.1262C11.2688 22.5374 14.3838 19.4212 15.9701 15.4937L17.0038 12.9362C17.0988 12.6999 17.3288 12.5449 17.5838 12.5449C17.8376 12.5449 18.0676 12.6987 18.1626 12.9349L19.2001 15.5012C20.7888 19.4287 23.9038 22.5437 27.8313 24.1299L30.3913 25.1649C30.6276 25.2599 30.7826 25.4899 30.7826 25.7437C30.7826 25.9987 30.6276 26.2287 30.3913 26.3237Z" fill="#B2BABC"/>
<path fill-rule="evenodd" clip-rule="evenodd" d="M43.2512 48.4774C43.8562 48.2337 44.2512 47.6462 44.2512 46.9937C44.2512 46.3424 43.855 45.7549 43.2512 45.5112C43.25 45.5099 43.25 45.5099 43.2487 45.5099C40.0112 44.2012 37.4425 41.6337 36.1325 38.3949C36.1325 38.3937 36.1312 38.3912 36.13 38.3899C35.8862 37.7849 35.2987 37.3887 34.6475 37.3887C33.995 37.3899 33.4075 37.7849 33.1637 38.3899C31.855 41.6287 29.2875 44.1974 26.0487 45.5074C26.0475 45.5087 26.045 45.5087 26.0437 45.5099C25.4387 45.7537 25.0425 46.3412 25.0425 46.9937C25.0425 47.6462 25.4387 48.2337 26.0437 48.4787C26.0462 48.4799 26.0487 48.4799 26.0512 48.4812C29.2887 49.7912 31.855 52.3587 33.1637 55.5974C33.1637 55.5987 33.1637 55.5999 33.165 55.5999C33.4087 56.2049 33.995 56.5999 34.6475 56.5999C35.2987 56.5999 35.885 56.2049 36.13 55.6012C36.13 55.5987 36.1312 55.5974 36.1312 55.5962C37.4412 52.3562 40.0087 49.7874 43.2487 48.4787L43.2512 48.4774ZM42.7825 47.3187L42.78 47.3199C39.2262 48.7562 36.4087 51.5737 34.9725 55.1274L34.97 55.1324C34.9175 55.2637 34.7887 55.3499 34.6475 55.3499C34.505 55.3499 34.3775 55.2637 34.3237 55.1324L34.3225 55.1287C32.8875 51.5774 30.0712 48.7599 26.52 47.3224L26.5125 47.3199C26.38 47.2662 26.2925 47.1374 26.2925 46.9937C26.2925 46.8512 26.38 46.7224 26.5125 46.6687L26.5175 46.6662C30.07 45.2299 32.8875 42.4112 34.3225 38.8587C34.3762 38.7262 34.505 38.6387 34.6475 38.6387C34.79 38.6387 34.9187 38.7262 34.9712 38.8574L34.9737 38.8637C36.41 42.4162 39.2287 45.2337 42.7812 46.6687L42.7825 46.6699C42.915 46.7237 43.0012 46.8512 43.0012 46.9937C43.0012 47.1374 42.915 47.2649 42.7825 47.3187Z" fill="#B2BABC"/>
</svg>
