<svg width="80" height="80" viewBox="0 0 80 80" fill="none" xmlns="http://www.w3.org/2000/svg">
<path fill-rule="evenodd" clip-rule="evenodd" d="M40.72 37.6225C39.97 39.9412 38.9588 42.17 37.7013 44.265L37.0863 45.29C36.8925 45.6137 36.9 46.02 37.1063 46.3375C37.3125 46.6538 37.6813 46.825 38.055 46.7775H38.0575C41.9388 46.2925 45.5275 44.6475 48.395 42.1287C50.3938 42.775 52.5263 43.125 54.7388 43.125C66.1225 43.125 75.3638 33.8838 75.3638 22.5C75.3638 11.1162 66.1225 1.875 54.7388 1.875C43.3563 1.875 34.1138 11.1162 34.1138 22.5C34.1138 28.4725 36.6588 33.8562 40.72 37.6225ZM38.4413 45.4613L38.7725 44.9087C40.15 42.6137 41.2438 40.1637 42.0338 37.6138C42.1063 37.38 42.035 37.1263 41.8525 36.9625C37.8725 33.4137 35.3638 28.2475 35.3638 22.5C35.3638 11.8062 44.0463 3.125 54.7388 3.125C65.4325 3.125 74.1138 11.8062 74.1138 22.5C74.1138 33.1938 65.4325 41.875 54.7388 41.875C52.5388 41.875 50.4225 41.5075 48.4513 40.83C48.235 40.7563 47.9963 40.8063 47.8275 40.96C45.235 43.3263 41.98 44.9113 38.4413 45.4613Z" fill="#B2BABC"/>
<path fill-rule="evenodd" clip-rule="evenodd" d="M39.8163 77.1763L24.1125 24.82C24.0338 24.5563 23.79 24.375 23.515 24.375H21.0125C20.7363 24.375 20.4925 24.5563 20.4138 24.82L4.66254 77.32C4.56254 77.6512 4.75129 78 5.08129 78.0988C5.41129 78.1975 5.76004 78.01 5.86004 77.68L21.4775 25.625H23.0488L38.6188 77.535C38.7175 77.865 39.0663 78.0525 39.3975 77.9538C39.7275 77.855 39.915 77.5063 39.8163 77.1763Z" fill="#B2BABC"/>
<path fill-rule="evenodd" clip-rule="evenodd" d="M9.87129 74.6863L36.4113 68.1063C36.6863 68.0388 36.8813 67.795 36.8863 67.5125C36.8925 67.23 36.7075 66.9788 36.4363 66.9L10.6863 59.4C10.355 59.3038 10.0075 59.4938 9.91129 59.825C9.81504 60.1563 10.005 60.5038 10.3363 60.6L33.86 67.4513L9.57004 73.4738C9.23504 73.5563 9.03129 73.8963 9.11379 74.2313C9.19754 74.565 9.53629 74.77 9.87129 74.6863Z" fill="#B2BABC"/>
<path fill-rule="evenodd" clip-rule="evenodd" d="M14.74 59.4287L32.3113 54.3499C32.5725 54.2749 32.755 54.0387 32.7625 53.7674C32.77 53.4949 32.6 53.2499 32.3438 53.1599L14.4675 46.9099C14.1425 46.7962 13.7863 46.9674 13.6713 47.2937C13.5575 47.6187 13.73 47.9762 14.055 48.0899L30.0825 53.6937L14.3925 58.2274C14.0613 58.3237 13.87 58.6699 13.9663 59.0012C14.0613 59.3324 14.4088 59.5237 14.74 59.4287Z" fill="#B2BABC"/>
<path fill-rule="evenodd" clip-rule="evenodd" d="M18.5174 46.6937L28.9674 43.0912C29.2099 43.0062 29.3774 42.7825 29.3874 42.525C29.3974 42.2662 29.2486 42.03 29.0124 41.9262L17.5111 36.9262C17.1949 36.7887 16.8261 36.935 16.6886 37.2512C16.5511 37.5675 16.6961 37.9362 17.0124 38.0737L27.0411 42.4325L18.1099 45.5125C17.7836 45.625 17.6099 45.98 17.7224 46.3062C17.8349 46.6325 18.1911 46.8062 18.5174 46.6937Z" fill="#B2BABC"/>
<path fill-rule="evenodd" clip-rule="evenodd" d="M20.4301 36.3612L26.0813 33.0387C26.2676 32.9287 26.3838 32.7299 26.3888 32.5124C26.3938 32.2962 26.2851 32.0924 26.1026 31.9749L20.2376 28.1887C19.9476 28.0012 19.5601 28.0849 19.3738 28.3749C19.1863 28.6637 19.2701 29.0512 19.5588 29.2387L24.5738 32.4749L19.7976 35.2837C19.5001 35.4587 19.4001 35.8424 19.5751 36.1399C19.7501 36.4374 20.1338 36.5362 20.4301 36.3612Z" fill="#B2BABC"/>
<path d="M22.2388 25.9312C24.655 25.9312 26.6138 23.9724 26.6138 21.5562C26.6138 19.1399 24.655 17.1812 22.2388 17.1812C19.8225 17.1812 17.8638 19.1399 17.8638 21.5562C17.8638 23.9724 19.8225 25.9312 22.2388 25.9312Z" fill="#3EDB97"/>
<path fill-rule="evenodd" clip-rule="evenodd" d="M44.1324 19.9414C48.2636 15.8114 54.2124 14.5951 59.4136 16.2939C60.0686 16.5076 60.7749 16.1489 60.9899 15.4939C61.2036 14.8376 60.8449 14.1314 60.1886 13.9176C54.1224 11.9364 47.1836 13.3551 42.3649 18.1739C41.8774 18.6614 41.8774 19.4539 42.3649 19.9414C42.8524 20.4301 43.6449 20.4301 44.1324 19.9414Z" fill="#3EDB97"/>
<path fill-rule="evenodd" clip-rule="evenodd" d="M62.9276 17.9777C63.7838 18.5364 64.5951 19.1902 65.3463 19.9414C65.8338 20.4302 66.6263 20.4302 67.1138 19.9414C67.6013 19.4539 67.6013 18.6614 67.1138 18.1739C66.2376 17.2977 65.2913 16.5352 64.2938 15.8839C63.7151 15.5064 62.9401 15.6702 62.5638 16.2477C62.1863 16.8252 62.3501 17.6002 62.9276 17.9777Z" fill="#3EDB97"/>
<path fill-rule="evenodd" clip-rule="evenodd" d="M48.3111 24.1199C50.4961 21.9337 53.5224 21.0962 56.3536 21.6024C57.0324 21.7249 57.6824 21.2724 57.8036 20.5924C57.9261 19.9137 57.4736 19.2637 56.7936 19.1424C53.1861 18.4949 49.3286 19.5662 46.5424 22.3524C46.0549 22.8399 46.0549 23.6324 46.5424 24.1199C47.0311 24.6074 47.8224 24.6074 48.3111 24.1199Z" fill="#3EDB97"/>
<path fill-rule="evenodd" clip-rule="evenodd" d="M59.8687 23.0413C60.3262 23.355 60.7612 23.7138 61.1675 24.12C61.655 24.6075 62.4475 24.6075 62.935 24.12C63.4225 23.6325 63.4225 22.84 62.935 22.3525C62.4175 21.835 61.8637 21.3775 61.2812 20.9788C60.7125 20.5888 59.9337 20.735 59.5437 21.3038C59.1537 21.8725 59.3 22.6513 59.8687 23.0413Z" fill="#3EDB97"/>
<path fill-rule="evenodd" clip-rule="evenodd" d="M52.4888 28.2988C52.7413 28.0463 53.0251 27.8463 53.3276 27.6963C53.9451 27.39 54.1988 26.64 53.8926 26.0213C53.5876 25.4025 52.8363 25.15 52.2188 25.455C51.6776 25.7225 51.1713 26.0813 50.7213 26.5313C50.2338 27.0188 50.2338 27.81 50.7213 28.2988C51.2088 28.7863 52.0013 28.7863 52.4888 28.2988Z" fill="#3EDB97"/>
<path fill-rule="evenodd" clip-rule="evenodd" d="M56.5813 27.9537C56.725 28.055 56.8613 28.17 56.9888 28.2987C57.4763 28.7862 58.2688 28.7862 58.7563 28.2987C59.245 27.81 59.245 27.0187 58.7563 26.5312C58.5288 26.3025 58.2863 26.0975 58.0313 25.9162C57.47 25.5162 56.6888 25.6487 56.2888 26.21C55.8875 26.7725 56.02 27.5537 56.5813 27.9537Z" fill="#3EDB97"/>
<path d="M54.7388 33.5662C55.7743 33.5662 56.6138 32.7267 56.6138 31.6912C56.6138 30.6556 55.7743 29.8162 54.7388 29.8162C53.7032 29.8162 52.8638 30.6556 52.8638 31.6912C52.8638 32.7267 53.7032 33.5662 54.7388 33.5662Z" fill="#3EDB97"/>
<path fill-rule="evenodd" clip-rule="evenodd" d="M60.985 10.7811L47.4237 32.9124C47.0625 33.5011 47.2475 34.2711 47.8362 34.6324C48.4237 34.9924 49.195 34.8074 49.555 34.2186L63.1175 12.0874C63.4775 11.4986 63.2925 10.7286 62.7037 10.3674C62.1162 10.0074 61.3462 10.1924 60.985 10.7811Z" fill="#3EDB97"/>
</svg>
