<svg width="80" height="80" viewBox="0 0 80 80" fill="none" xmlns="http://www.w3.org/2000/svg">
<path fill-rule="evenodd" clip-rule="evenodd" d="M61.1087 29.0974V45.4449C61.1087 45.4449 61.1125 46.9499 60.9887 49.2637C60.97 49.6087 61.235 49.9037 61.58 49.9212C61.9237 49.9399 62.2187 49.6762 62.2375 49.3312C62.3637 46.9749 62.3587 45.4412 62.3587 45.4412V29.0974C62.3587 28.7524 62.0787 28.4724 61.7337 28.4724C61.3887 28.4724 61.1087 28.7524 61.1087 29.0974Z" fill="#B2BABC"/>
<path fill-rule="evenodd" clip-rule="evenodd" d="M57.9165 47.2912L54.7877 46.1562C53.7352 45.7749 52.559 45.9849 51.704 46.7074L47.914 49.9112C47.4365 50.3149 46.789 50.4549 46.1877 50.2824L38.7202 48.1487C38.4277 48.0649 38.1177 48.2049 37.9865 48.4787C37.854 48.7524 37.9377 49.0812 38.1852 49.2587C38.1852 49.2587 42.8865 52.6162 45.3977 54.4099C46.5352 55.2224 48.074 55.1799 49.1652 54.3074L52.8302 51.3749C53.3465 50.9624 54.0415 50.8524 54.6602 51.0837L60.6827 53.3424C60.1715 58.5787 59.0602 65.2537 56.5715 69.4474C56.4552 69.6274 56.259 69.7337 56.0477 69.7337C51.264 69.7374 22.864 69.7374 14.924 69.7374C14.7052 69.7374 14.5015 69.6224 14.389 69.4349C14.2765 69.2462 14.2702 69.0124 14.3727 68.8187C14.379 68.8087 14.384 68.7974 14.389 68.7874C18.3102 60.2737 18.609 45.4562 18.609 45.4562V43.8049C18.609 43.4599 18.329 43.1799 17.984 43.1799C17.639 43.1799 17.359 43.4599 17.359 43.8049V45.4374C17.3527 45.7574 17.0477 60.0049 13.2627 68.2437C12.9615 68.8287 12.9827 69.5199 13.3177 70.0774C13.6552 70.6412 14.2652 70.9874 14.9227 70.9874H14.924C22.8627 70.9874 51.2652 70.9874 56.049 70.9837C56.689 70.9837 57.2865 70.6549 57.629 70.1137C57.6327 70.1087 57.6352 70.1037 57.6377 70.0987C60.2915 65.6399 61.4665 58.4599 61.9715 52.9824C61.9977 52.7024 61.8327 52.4387 61.569 52.3399L55.099 49.9137C54.0677 49.5274 52.909 49.7112 52.049 50.3999C51.029 51.2162 49.5077 52.4324 48.3852 53.3312C47.7302 53.8549 46.8065 53.8799 46.124 53.3924L41.8577 50.3449L45.8452 51.4849C46.8465 51.7712 47.9252 51.5387 48.7202 50.8662L52.5115 47.6624C53.024 47.2287 53.7302 47.1024 54.3615 47.3312L57.489 48.4662C57.814 48.5837 58.1727 48.4162 58.2902 48.0924C58.4077 47.7674 58.2402 47.4087 57.9165 47.2912Z" fill="#B2BABC"/>
<path fill-rule="evenodd" clip-rule="evenodd" d="M21.6226 43.1087L23.6876 42.3337C24.3064 42.1025 25.0014 42.2125 25.5176 42.625L29.1814 45.5574C30.2739 46.43 31.8126 46.4725 32.9501 45.66C35.4614 43.8662 40.1626 40.5087 40.1626 40.5087C40.4101 40.3312 40.4939 40.0025 40.3614 39.7287C40.2301 39.455 39.9201 39.3149 39.6276 39.3987C39.6276 39.3987 34.5901 40.8387 32.1589 41.5325C31.5589 41.705 30.9114 41.565 30.4339 41.1612L26.6439 37.9574C25.7889 37.2349 24.6126 37.025 23.5601 37.4062L18.6089 39.2025V10.8875C18.6089 10.7212 18.6751 10.5625 18.7926 10.445C18.9101 10.3275 19.0689 10.2625 19.2339 10.2625H44.3751C44.7201 10.2625 45.0001 9.98245 45.0001 9.63745C45.0001 9.29245 44.7201 9.01245 44.3751 9.01245C38.0126 9.01245 23.5651 9.01245 19.2339 9.01245C18.7364 9.01245 18.2601 9.20995 17.9089 9.5612C17.5564 9.91245 17.3589 10.39 17.3589 10.8875V40.0937C17.3589 40.2975 17.4589 40.4887 17.6251 40.6062C17.7926 40.7225 18.0064 40.7512 18.1976 40.6812L23.9864 38.5812C24.6176 38.3524 25.3239 38.4787 25.8364 38.9124L29.6264 42.1162C30.4226 42.7887 31.5014 43.0212 32.5026 42.735L36.4901 41.595L32.2239 44.6425C31.5414 45.13 30.6176 45.105 29.9626 44.5812C28.8401 43.6825 27.3189 42.4662 26.2989 41.65C25.4389 40.9612 24.2801 40.7775 23.2489 41.1637L21.1839 41.9387C20.8601 42.0587 20.6964 42.42 20.8176 42.7425C20.9389 43.0662 21.2989 43.2299 21.6226 43.1087Z" fill="#B2BABC"/>
<path fill-rule="evenodd" clip-rule="evenodd" d="M61.5048 26.0838C61.751 26.1813 62.0323 26.1125 62.206 25.9113C62.3798 25.7113 62.4085 25.4225 62.276 25.1925C58.7498 19.0275 53.9185 13.6788 47.7985 9.13504C47.591 8.98004 47.3085 8.97129 47.0898 9.11129C46.871 9.25004 46.761 9.51129 46.8148 9.76504C47.736 14.1663 48.1885 18.62 47.7423 23.1738C47.6823 23.7475 47.8923 24.3225 48.3148 24.7225C48.736 25.1238 49.3198 25.3063 49.8948 25.2163C53.9035 24.5963 57.8135 24.6263 61.5048 26.0838Z" fill="#3EDB97"/>
<path fill-rule="evenodd" clip-rule="evenodd" d="M7.59746 29.7224L13.8475 37.0599C14.295 37.5861 15.0837 37.6486 15.6087 37.2011C16.1337 36.7536 16.1975 35.9649 15.75 35.4399L9.49996 28.1024C9.05246 27.5761 8.26371 27.5136 7.73746 27.9611C7.21246 28.4086 7.14996 29.1974 7.59746 29.7224Z" fill="#3EDB97"/>
<path fill-rule="evenodd" clip-rule="evenodd" d="M7.66493 40.63L12.1012 41.8188C12.7674 41.9975 13.4537 41.6013 13.6324 40.935C13.8112 40.2688 13.4149 39.5825 12.7487 39.4038L8.31243 38.215C7.64493 38.0363 6.95993 38.4325 6.78118 39.0988C6.60243 39.765 6.99868 40.4513 7.66493 40.63Z" fill="#3EDB97"/>
<path fill-rule="evenodd" clip-rule="evenodd" d="M7.0762 50.9113L15.4237 46.0913C16.0212 45.7463 16.2262 44.9813 15.8812 44.3838C15.5362 43.7863 14.7712 43.5813 14.1737 43.9263L5.8262 48.7463C5.2287 49.0913 5.0237 49.8563 5.3687 50.4538C5.7137 51.0513 6.4787 51.2563 7.0762 50.9113Z" fill="#3EDB97"/>
<path fill-rule="evenodd" clip-rule="evenodd" d="M72.4023 64.0176L66.1523 56.6801C65.7048 56.1551 64.916 56.0926 64.391 56.5388C63.866 56.9863 63.8023 57.7763 64.2498 58.3013L70.4998 65.6388C70.9473 66.1638 71.736 66.2276 72.2623 65.7801C72.7873 65.3326 72.8498 64.5426 72.4023 64.0176Z" fill="#3EDB97"/>
<path fill-rule="evenodd" clip-rule="evenodd" d="M72.3351 53.1113L67.8989 51.9225C67.2326 51.7438 66.5464 52.14 66.3676 52.8063C66.1889 53.4725 66.5851 54.1588 67.2514 54.3375L71.6876 55.5263C72.3551 55.7038 73.0401 55.3088 73.2189 54.6413C73.3976 53.975 73.0014 53.29 72.3351 53.1113Z" fill="#3EDB97"/>
<path fill-rule="evenodd" clip-rule="evenodd" d="M72.9237 42.8299L64.5762 47.6486C63.9787 47.9936 63.7737 48.7586 64.1187 49.3561C64.4637 49.9536 65.2287 50.1586 65.8262 49.8136L74.1737 44.9949C74.7712 44.6499 74.9762 43.8849 74.6312 43.2874C74.2862 42.6899 73.5212 42.4849 72.9237 42.8299Z" fill="#3EDB97"/>
<path fill-rule="evenodd" clip-rule="evenodd" d="M25.2726 20.6825L29.6914 25.1025C29.9351 25.3463 30.3314 25.3463 30.5751 25.1025C30.8189 24.8588 30.8189 24.4625 30.5751 24.2188L26.1564 19.7988C25.9126 19.555 25.5164 19.555 25.2726 19.7988C25.0276 20.0438 25.0276 20.4388 25.2726 20.6825Z" fill="#B2BABC"/>
<path fill-rule="evenodd" clip-rule="evenodd" d="M29.6914 19.7988L25.2726 24.2188C25.0276 24.4625 25.0276 24.8588 25.2726 25.1025C25.5164 25.3463 25.9126 25.3463 26.1564 25.1025L30.5751 20.6825C30.8189 20.4388 30.8189 20.0438 30.5751 19.7988C30.3314 19.555 29.9351 19.555 29.6914 19.7988Z" fill="#B2BABC"/>
<path fill-rule="evenodd" clip-rule="evenodd" d="M39.0226 20.6825L43.4414 25.1025C43.6851 25.3463 44.0814 25.3463 44.3251 25.1025C44.5689 24.8588 44.5689 24.4625 44.3251 24.2188L39.9064 19.7988C39.6626 19.555 39.2664 19.555 39.0226 19.7988C38.7776 20.0438 38.7776 20.4388 39.0226 20.6825Z" fill="#B2BABC"/>
<path fill-rule="evenodd" clip-rule="evenodd" d="M43.4414 19.7988L39.0226 24.2188C38.7776 24.4625 38.7776 24.8588 39.0226 25.1025C39.2664 25.3463 39.6626 25.3463 39.9064 25.1025L44.3251 20.6825C44.5689 20.4388 44.5689 20.0438 44.3251 19.7988C44.0814 19.555 43.6851 19.555 43.4414 19.7988Z" fill="#B2BABC"/>
<path fill-rule="evenodd" clip-rule="evenodd" d="M27.6736 32.5112L29.8023 30.9162L31.9236 32.5099C32.1448 32.6774 32.4511 32.6774 32.6736 32.5099L34.7986 30.9162L36.9236 32.5099C37.1461 32.6774 37.4511 32.6774 37.6736 32.5099L39.7986 30.9162L41.9236 32.5099C42.1998 32.7174 42.5911 32.6612 42.7986 32.3849C43.0048 32.1099 42.9498 31.7174 42.6736 31.5099L40.1736 29.6349C39.9523 29.4687 39.6461 29.4687 39.4236 29.6349L37.2986 31.2287L35.1736 29.6349C34.9523 29.4687 34.6461 29.4687 34.4236 29.6349L32.2986 31.2287L30.1786 29.6362C29.9561 29.4687 29.6511 29.4687 29.4286 29.6349L26.9236 31.5099C26.6473 31.7162 26.5911 32.1087 26.7986 32.3849C27.0048 32.6612 27.3973 32.7174 27.6736 32.5112Z" fill="#B2BABC"/>
</svg>
