<svg width="20" height="20" viewBox="0 0 20 20" fill="none" xmlns="http://www.w3.org/2000/svg">
<g clip-path="url(#clip0_1181_615)">
<path d="M9.05078 10.5C7.22656 10.5 5.5625 9.57422 4.59766 8.02734C4.07812 7.19531 3.80469 6.23438 3.80469 5.25C3.80469 3.84375 4.35547 2.51953 5.35156 1.52734C6.33984 0.542969 7.65234 0 9.05078 0H9.08203C10.4805 0.0078125 11.793 0.5625 12.7813 1.5625C13.7695 2.5625 14.3086 3.88672 14.3008 5.28516C14.293 6.25781 14.0195 7.20703 13.5078 8.02734C12.5391 9.57422 10.8711 10.5 9.05078 10.5ZM9.05078 1.10547C7.94922 1.10547 6.91016 1.53125 6.12891 2.3125C5.33984 3.09766 4.90625 4.14062 4.90625 5.25C4.90625 6.02734 5.12109 6.78516 5.53125 7.44141C6.29297 8.66406 7.60938 9.39062 9.04688 9.39062C10.4844 9.39062 11.8008 8.66016 12.5625 7.44141C12.9688 6.79297 13.1836 6.04688 13.1875 5.27734C13.1953 4.17578 12.7695 3.13281 11.9883 2.34375C11.207 1.55469 10.1719 1.11328 9.07031 1.10938C9.06641 1.10547 9.05859 1.10547 9.05078 1.10547Z" fill="#596A6E"/>
<path d="M15.4922 18.5469C15.1875 18.5469 14.9375 18.3008 14.9375 17.9922V15.9375C14.9375 15.6328 15.1836 15.3828 15.4922 15.3828C15.7969 15.3828 16.0469 15.6289 16.0469 15.9375V17.9922C16.0469 18.3008 15.8008 18.5469 15.4922 18.5469Z" fill="#596A6E"/>
<path d="M17.1719 18.5469C16.8672 18.5469 16.6172 18.3008 16.6172 17.9922V15.9375C16.6172 15.6328 16.8633 15.3828 17.1719 15.3828C17.4766 15.3828 17.7266 15.6289 17.7266 15.9375V17.9922C17.7266 18.3008 17.4766 18.5469 17.1719 18.5469Z" fill="#596A6E"/>
<path d="M17.2422 20H15.4219C14.332 20 13.4453 19.1133 13.4453 18.0195V14.4844C13.4453 14.1797 13.6914 13.9297 14 13.9297C14.3086 13.9297 14.5547 14.1758 14.5547 14.4844V18.0195C14.5547 18.5 14.9453 18.8906 15.4258 18.8906H17.2461C17.7266 18.8906 18.1172 18.5 18.1172 18.0195V14.4844C18.1172 14.1797 18.3633 13.9297 18.6719 13.9297C18.9805 13.9297 19.2266 14.1758 19.2266 14.4844V18.0195C19.2227 19.1133 18.3359 20 17.2422 20Z" fill="#596A6E"/>
<path d="M19.2969 15.0391H13.3672C13.0625 15.0391 12.8125 14.793 12.8125 14.4844C12.8125 14.1797 13.0586 13.9297 13.3672 13.9297H19.2969C19.6016 13.9297 19.8516 14.1758 19.8516 14.4844C19.8477 14.793 19.6016 15.0391 19.2969 15.0391Z" fill="#596A6E"/>
<path d="M17.7969 15.0391C17.4922 15.0391 17.2422 14.793 17.2422 14.4844V13.5742C17.2422 13.5156 17.1953 13.4687 17.1367 13.4687H15.5273C15.4688 13.4687 15.4219 13.5156 15.4219 13.5742V14.4844C15.4219 14.7891 15.1758 15.0391 14.8672 15.0391C14.5625 15.0391 14.3125 14.793 14.3125 14.4844V13.5742C14.3125 12.9062 14.8555 12.3633 15.5234 12.3633H17.1328C17.8008 12.3633 18.3438 12.9062 18.3438 13.5742V14.4844C18.3516 14.793 18.1016 15.0391 17.7969 15.0391Z" fill="#596A6E"/>
<path d="M9.05077 18.32C6.06639 18.32 3.21483 17.402 0.800768 15.6676C0.27733 15.2887 0.0390489 14.6129 0.207018 13.9879C0.425768 13.1754 0.757799 12.3981 1.1953 11.6754C2.54296 9.43325 5.26952 8.41763 7.82421 9.2106C8.21874 9.33169 8.6328 9.39419 9.05467 9.39419C9.47264 9.39419 9.88671 9.33169 10.2812 9.2106C12.4609 8.53481 14.8281 9.17935 16.3086 10.8512C16.4453 11.0075 16.4844 11.2301 16.4062 11.4215C16.3281 11.6168 16.1484 11.7497 15.9414 11.7692C13.6758 11.9684 11.9023 13.9098 11.9023 16.1833C11.9023 16.5934 11.957 16.9997 12.0703 17.3903C12.1133 17.5387 12.0898 17.7028 12.0078 17.8317C11.9258 17.9645 11.793 18.0543 11.6367 18.0817C10.7851 18.2418 9.91796 18.32 9.05077 18.32ZM6.0703 10.0465C4.48045 10.0465 2.98046 10.8473 2.14061 12.2418C1.7578 12.8786 1.46874 13.5622 1.27342 14.2731C1.22264 14.4567 1.29296 14.6559 1.4453 14.7653C3.67186 16.3668 6.30077 17.2106 9.05077 17.2106C9.65624 17.2106 10.2656 17.1676 10.8672 17.0856C10.8164 16.7887 10.793 16.484 10.793 16.1793C10.793 14.7848 11.3125 13.4528 12.2578 12.4293C12.9297 11.6989 13.7734 11.1715 14.6992 10.8864C13.539 10.07 12.0273 9.82388 10.6055 10.2614C10.1015 10.4176 9.57811 10.4958 9.05077 10.4958C8.51952 10.4958 7.99608 10.4176 7.49608 10.2614C7.01952 10.1168 6.54295 10.0465 6.0703 10.0465Z" fill="#596A6E"/>
</g>
<defs>
<clipPath id="clip0_1181_615">
<rect width="20" height="20" fill="white"/>
</clipPath>
</defs>
</svg>
