<svg width="20" height="20" viewBox="0 0 20 20" fill="none" xmlns="http://www.w3.org/2000/svg">
<g clip-path="url(#clip0_613_2521)">
<path d="M14.5575 3.88C13.3402 2.66262 11.7216 1.99219 10 1.99219C6.44605 1.99219 3.55469 4.88355 3.55469 8.4375V11.9531C3.55469 12.2767 3.81703 12.5391 4.14062 12.5391C4.46422 12.5391 4.72656 12.2767 4.72656 11.9531V8.4375C4.72656 5.52973 7.09223 3.16406 10 3.16406C11.4086 3.16406 12.7329 3.71258 13.7289 4.70863C14.7249 5.70465 15.2734 7.02895 15.2734 8.43754V8.82812C15.2734 9.15172 15.5357 9.41406 15.8593 9.41406C16.1829 9.41406 16.4453 9.15172 16.4453 8.82812V8.43754C16.4453 6.71594 15.7749 5.09734 14.5575 3.88Z" fill="#596A6E"/>
<path d="M15.8594 12.9297C13.5978 12.9297 11.7578 11.0897 11.7578 8.82812V8.4375C11.7578 7.46824 10.9693 6.67969 10 6.67969C9.03074 6.67969 8.24219 7.46824 8.24219 8.4375V8.82812C8.24219 12.0513 10.283 14.9382 13.3204 16.0117C13.3849 16.0345 13.4508 16.0454 13.5156 16.0454C13.757 16.0454 13.983 15.895 14.0681 15.6545C14.1759 15.3494 14.016 15.0147 13.7109 14.9068C11.1408 13.9984 9.41406 11.5556 9.41406 8.82812V8.4375C9.41406 8.11441 9.67691 7.85156 10 7.85156C10.3231 7.85156 10.5859 8.11441 10.5859 8.4375V8.82812C10.5859 11.7359 12.9516 14.1016 15.8594 14.1016C16.183 14.1016 16.4453 13.8392 16.4453 13.5156C16.4453 13.192 16.183 12.9297 15.8594 12.9297Z" fill="#596A6E"/>
<path d="M15.8594 10.5859C14.8901 10.5859 14.1016 9.79738 14.1016 8.82812V8.4375C14.1016 6.1759 12.2616 4.33594 10 4.33594C7.7384 4.33594 5.89844 6.1759 5.89844 8.4375V11.9531C5.89844 12.9224 5.10988 13.7109 4.14062 13.7109C3.81703 13.7109 3.55469 13.9733 3.55469 14.2969C3.55469 14.6205 3.81703 14.8828 4.14062 14.8828C5.75605 14.8828 7.07031 13.5686 7.07031 11.9531V8.4375C7.07031 6.82207 8.38457 5.50781 10 5.50781C11.6154 5.50781 12.9297 6.82207 12.9297 8.4375V8.82812C12.9297 10.4436 14.2439 11.7578 15.8594 11.7578C16.183 11.7578 16.4453 11.4955 16.4453 11.1719C16.4453 10.8483 16.183 10.5859 15.8594 10.5859Z" fill="#596A6E"/>
<path d="M8.50922 13.7429C8.22762 13.5834 7.87004 13.6826 7.7107 13.9642C6.98098 15.2536 5.61301 16.0546 4.14062 16.0546C3.81703 16.0546 3.55469 16.3169 3.55469 16.6405C3.55469 16.9641 3.81703 17.2265 4.14062 17.2265C6.03449 17.2265 7.79324 16.1976 8.73055 14.5414C8.88996 14.2598 8.79086 13.9023 8.50922 13.7429Z" fill="#596A6E"/>
<path d="M12.3685 16.8846C11.5851 16.5434 10.8679 16.1034 10.237 15.5767C10.1117 15.4722 9.9488 15.4247 9.78685 15.4454C9.62509 15.4662 9.47927 15.5535 9.38454 15.6863C9.04622 16.1605 8.639 16.5909 8.17411 16.9657C7.9222 17.1688 7.88263 17.5377 8.08575 17.7896C8.28888 18.0415 8.65779 18.0811 8.90966 17.878C9.29571 17.5667 9.64849 17.2222 9.96322 16.8497C10.5567 17.2846 11.2061 17.6566 11.9006 17.959C11.9768 17.9922 12.0562 18.0079 12.1343 18.0079C12.3604 18.0079 12.5758 17.8762 12.6718 17.6557C12.801 17.359 12.6652 17.0138 12.3685 16.8846Z" fill="#596A6E"/>
<path d="M3.71094 0H0.585938C0.262344 0 0 0.262344 0 0.585938V3.71094C0 4.03453 0.262344 4.29688 0.585938 4.29688C0.909531 4.29688 1.17188 4.03453 1.17188 3.71094V1.17188H3.71094C4.03453 1.17188 4.29688 0.909531 4.29688 0.585938C4.29688 0.262344 4.03453 0 3.71094 0Z" fill="#596A6E"/>
<path d="M3.71094 18.8281H1.17188V16.2891C1.17188 15.9655 0.909531 15.7031 0.585938 15.7031C0.262344 15.7031 0 15.9655 0 16.2891V19.4141C0 19.7377 0.262344 20 0.585938 20H3.71094C4.03453 20 4.29688 19.7377 4.29688 19.4141C4.29688 19.0905 4.03453 18.8281 3.71094 18.8281Z" fill="#596A6E"/>
<path d="M19.4141 15.7031C19.0905 15.7031 18.8281 15.9655 18.8281 16.2891V18.8281H16.2891C15.9655 18.8281 15.7031 19.0905 15.7031 19.4141C15.7031 19.7377 15.9655 20 16.2891 20H19.4141C19.7377 20 20 19.7377 20 19.4141V16.2891C20 15.9655 19.7377 15.7031 19.4141 15.7031Z" fill="#596A6E"/>
<path d="M19.4141 0H16.2891C15.9655 0 15.7031 0.262344 15.7031 0.585938C15.7031 0.909531 15.9655 1.17188 16.2891 1.17188H18.8281V3.71094C18.8281 4.03453 19.0905 4.29688 19.4141 4.29688C19.7377 4.29688 20 4.03453 20 3.71094V0.585938C20 0.262344 19.7377 0 19.4141 0Z" fill="#596A6E"/>
</g>
<defs>
<clipPath id="clip0_613_2521">
<rect width="20" height="20" fill="white"/>
</clipPath>
</defs>
</svg>
