<svg width="20" height="20" viewBox="0 0 20 20" fill="none" xmlns="http://www.w3.org/2000/svg">
<g clip-path="url(#clip0_613_2633)">
<path d="M14.0278 6.6363V3.98088C13.8257 -1.32898 6.21402 -1.32495 6.0138 3.98088V6.63368C3.56952 6.79365 1.62976 8.83284 1.62976 11.3168V15.3064C1.62976 17.8945 3.73532 20 6.32338 20H13.6767C16.2648 20 18.3704 17.8945 18.3704 15.3064V11.3168C18.3704 8.84688 16.4525 6.81646 14.0278 6.6363ZM10.0208 1.53844C11.3676 1.53844 12.4633 2.63413 12.4633 3.98088V6.6232H7.57834V3.98088C7.57834 2.63413 8.67403 1.53844 10.0208 1.53844ZM16.8058 15.3064C16.8058 17.0318 15.4021 18.4355 13.6767 18.4355H6.32338C4.59801 18.4355 3.1943 17.0318 3.1943 15.3064V11.3168C3.1943 9.59145 4.59801 8.18774 6.32338 8.18774H13.6767C15.4021 8.18774 16.8058 9.59145 16.8058 11.3168V15.3064ZM12.3469 12.5294C12.3469 11.2353 11.2941 10.1826 10.0001 10.1826C7.35434 10.2327 6.76842 13.8357 9.21779 14.7416V15.8931C9.25623 16.93 10.7442 16.9292 10.7823 15.8931V14.7416C11.6929 14.4187 12.3469 13.5492 12.3469 12.5294ZM10.0001 13.3117C9.56871 13.3117 9.21779 12.9607 9.21779 12.5294C9.25709 11.493 10.7432 11.4933 10.7823 12.5294C10.7823 12.9608 10.4314 13.3117 10.0001 13.3117Z" fill="#596A6E"/>
</g>
<defs>
<clipPath id="clip0_613_2633">
<rect width="20" height="20" fill="white"/>
</clipPath>
</defs>
</svg>
