<svg width="20" height="20" viewBox="0 0 20 20" fill="none" xmlns="http://www.w3.org/2000/svg">
<g clip-path="url(#clip0_613_2664)">
<path d="M6.91172 12.8458C7.3466 12.42 7.61719 11.8271 7.61719 11.1719C7.61719 9.87953 6.56578 8.82812 5.27344 8.82812C3.98109 8.82812 2.92969 9.87953 2.92969 11.1719C2.92969 11.8271 3.20027 12.42 3.63516 12.8458C2.85652 13.3729 2.34375 14.2644 2.34375 15.2734V16.4453C2.34375 16.7689 2.60609 17.0312 2.92969 17.0312H7.61719C7.94078 17.0312 8.20312 16.7689 8.20312 16.4453V15.2734C8.20312 14.2644 7.69035 13.3729 6.91172 12.8458ZM5.27344 10C5.91961 10 6.44531 10.5257 6.44531 11.1719C6.44531 11.818 5.91961 12.3438 5.27344 12.3438C4.62727 12.3438 4.10156 11.818 4.10156 11.1719C4.10156 10.5257 4.62727 10 5.27344 10ZM7.03125 15.8594H3.51562V15.2734C3.51562 14.3042 4.30418 13.5156 5.27344 13.5156C6.2427 13.5156 7.03125 14.3042 7.03125 15.2734V15.8594Z" fill="#596A6E"/>
<path d="M13.5547 12.3438C13.8783 12.3438 14.1406 12.0814 14.1406 11.7578C14.1406 11.4342 13.8783 11.1719 13.5547 11.1719C13.2311 11.1719 12.9688 11.4342 12.9688 11.7578C12.9688 12.0814 13.2311 12.3438 13.5547 12.3438Z" fill="#596A6E"/>
<path d="M15.8984 12.3438C16.222 12.3438 16.4844 12.0814 16.4844 11.7578C16.4844 11.4342 16.222 11.1719 15.8984 11.1719C15.5748 11.1719 15.3125 11.4342 15.3125 11.7578C15.3125 12.0814 15.5748 12.3438 15.8984 12.3438Z" fill="#596A6E"/>
<path d="M11.2109 12.3438C11.5345 12.3438 11.7969 12.0814 11.7969 11.7578C11.7969 11.4342 11.5345 11.1719 11.2109 11.1719C10.8873 11.1719 10.625 11.4342 10.625 11.7578C10.625 12.0814 10.8873 12.3438 11.2109 12.3438Z" fill="#596A6E"/>
<path d="M15.8984 13.5156H11.2109C10.8873 13.5156 10.625 13.778 10.625 14.1016C10.625 14.4252 10.8873 14.6875 11.2109 14.6875H15.8984C16.222 14.6875 16.4844 14.4252 16.4844 14.1016C16.4844 13.778 16.222 13.5156 15.8984 13.5156Z" fill="#596A6E"/>
<path d="M15.8984 15.8594H11.2109C10.8873 15.8594 10.625 16.1217 10.625 16.4453C10.625 16.7689 10.8873 17.0312 11.2109 17.0312H15.8984C16.222 17.0312 16.4844 16.7689 16.4844 16.4453C16.4844 16.1217 16.222 15.8594 15.8984 15.8594Z" fill="#596A6E"/>
<path d="M17.4846 3.72634C17.2558 3.49748 16.8848 3.49748 16.656 3.7263L14.7266 5.65576L13.969 4.89818C13.7402 4.66935 13.3692 4.66935 13.1404 4.89818C12.9115 5.12701 12.9115 5.49798 13.1404 5.72681L14.3122 6.89869C14.4267 7.01314 14.5766 7.07033 14.7266 7.07033C14.8765 7.07033 15.0265 7.01314 15.1409 6.89873L17.4846 4.55498C17.7135 4.32615 17.7135 3.95517 17.4846 3.72634Z" fill="#596A6E"/>
<path d="M15.3125 0.625C12.7278 0.625 10.625 2.72781 10.625 5.3125H1.75781C0.788555 5.3125 0 6.10105 0 7.07031V17.6172C0 18.5864 0.788555 19.375 1.75781 19.375H17.0703C18.0396 19.375 18.8281 18.5864 18.8281 17.6172V8.40934C19.557 7.58285 20 6.49852 20 5.3125C20 2.72781 17.8972 0.625 15.3125 0.625ZM17.6562 17.6172C17.6562 17.9403 17.3934 18.2031 17.0703 18.2031H1.75781C1.43473 18.2031 1.17188 17.9403 1.17188 17.6172V7.07031C1.17188 6.74723 1.43473 6.48438 1.75781 6.48438H10.7733C11.295 8.50387 13.1323 10 15.3125 10C16.1657 10 16.9664 9.77074 17.6562 9.37074V17.6172ZM15.3125 8.82812C13.374 8.82812 11.7969 7.25102 11.7969 5.3125C11.7969 3.37398 13.374 1.79688 15.3125 1.79688C17.251 1.79688 18.8281 3.37398 18.8281 5.3125C18.8281 7.25102 17.251 8.82812 15.3125 8.82812Z" fill="#596A6E"/>
</g>
<defs>
<clipPath id="clip0_613_2664">
<rect width="20" height="20" fill="white"/>
</clipPath>
</defs>
</svg>
