<svg width="20" height="20" viewBox="0 0 20 20" fill="none" xmlns="http://www.w3.org/2000/svg">
<path d="M8.91671 18.3334C4.41671 18.3334 0.833374 14.5834 0.833374 10.0001C0.833374 5.41675 4.41671 1.66675 8.91671 1.66675C10.3334 1.66675 11.75 2.08341 12.9167 2.75008C13.3334 3.00008 13.4167 3.50008 13.1667 3.91675C12.9167 4.33341 12.4167 4.41675 12 4.16675C11.0834 3.66675 10 3.33341 8.91671 3.33341C5.33337 3.33341 2.50004 6.33341 2.50004 10.0001C2.50004 13.6667 5.33337 16.6667 8.91671 16.6667C10 16.6667 11.1667 16.3334 12.0834 15.7501C12.5 15.5001 13 15.6667 13.25 16.0001C13.5 16.4167 13.3334 16.9167 13 17.1667C11.6667 17.9167 10.3334 18.3334 8.91671 18.3334ZM15 14.1667C14.75 14.1667 14.5834 14.0834 14.4167 13.9167C14.0834 13.5834 14.0834 13.0834 14.4167 12.7501L16.3334 10.8334H7.50004C7.00004 10.8334 6.66671 10.5001 6.66671 10.0001C6.66671 9.50008 7.00004 9.16675 7.50004 9.16675H16.3334L14.4167 7.25008C14.0834 6.91675 14.0834 6.41675 14.4167 6.08341C14.75 5.75008 15.25 5.75008 15.5834 6.08341L18.9167 9.41675C19 9.50008 19.0834 9.58342 19.0834 9.66675C19.0834 9.75008 19.1667 9.83341 19.1667 10.0001C19.1667 10.0834 19.1667 10.2501 19.0834 10.3334C19.0834 10.4167 19 10.5001 18.9167 10.5834L15.5834 13.9167C15.4167 14.0834 15.25 14.1667 15 14.1667Z" fill="#F5585B"/>
</svg>
