<svg width="20" height="20" viewBox="0 0 20 20" fill="none" xmlns="http://www.w3.org/2000/svg">
<path d="M17.5 13.5417H16.94C16.8675 13.22 16.7392 12.92 16.5675 12.65L16.9642 12.2525C17.2084 12.0083 17.2084 11.6125 16.9642 11.3683C16.72 11.1242 16.3242 11.1242 16.08 11.3683L15.6834 11.7658C15.4125 11.5942 15.1134 11.4658 14.7917 11.3933V10.8333C14.7917 10.4883 14.5117 10.2083 14.1667 10.2083C13.8217 10.2083 13.5417 10.4883 13.5417 10.8333V11.3933C13.22 11.4658 12.9209 11.5942 12.65 11.7658L12.2534 11.3683C12.0092 11.1242 11.6134 11.1242 11.3692 11.3683C11.125 11.6125 11.125 12.0083 11.3692 12.2525L11.7659 12.65C11.5942 12.9208 11.4659 13.22 11.3934 13.5417H10.8334C10.4884 13.5417 10.2084 13.8217 10.2084 14.1667C10.2084 14.5117 10.4884 14.7917 10.8334 14.7917H11.3934C11.4659 15.1133 11.5942 15.4133 11.7659 15.6833L11.3692 16.0808C11.125 16.325 11.125 16.7208 11.3692 16.965C11.4909 17.0867 11.6509 17.1483 11.8109 17.1483C11.9709 17.1483 12.1309 17.0875 12.2525 16.965L12.6492 16.5675C12.92 16.7392 13.2192 16.8675 13.5409 16.94V17.5C13.5409 17.845 13.8209 18.125 14.1659 18.125C14.5109 18.125 14.7909 17.845 14.7909 17.5V16.94C15.1125 16.8675 15.4117 16.7392 15.6825 16.5675L16.0792 16.965C16.2009 17.0867 16.3609 17.1483 16.5209 17.1483C16.6809 17.1483 16.8409 17.0875 16.9625 16.965C17.2067 16.7208 17.2067 16.325 16.9625 16.0808L16.5659 15.6833C16.7375 15.4125 16.8659 15.1133 16.9384 14.7917H17.4984C17.8434 14.7917 18.1234 14.5117 18.1234 14.1667C18.1234 13.8217 17.8434 13.5417 17.4984 13.5417H17.5ZM15.2917 15.2917C15.2867 15.2967 15.285 15.3033 15.2809 15.3083C14.9925 15.5892 14.6009 15.7642 14.1675 15.7642C13.7342 15.7642 13.3417 15.5892 13.0542 15.3083C13.0492 15.3033 13.0475 15.2967 13.0434 15.2917C13.0392 15.2867 13.0317 15.285 13.0267 15.2808C12.7459 14.9925 12.5709 14.6 12.5709 14.1675C12.5709 13.735 12.7459 13.3425 13.0267 13.0542C13.0317 13.0492 13.0384 13.0483 13.0434 13.0433C13.0484 13.0383 13.05 13.0317 13.0542 13.0267C13.3425 12.7458 13.7342 12.5708 14.1675 12.5708C14.6009 12.5708 14.9934 12.7458 15.2809 13.0267C15.2859 13.0317 15.2875 13.0383 15.2917 13.0433C15.2959 13.0483 15.3034 13.05 15.3084 13.0542C15.5892 13.3425 15.7642 13.7342 15.7642 14.1675C15.7642 14.6008 15.5892 14.9933 15.3084 15.2808C15.3034 15.2858 15.2967 15.2867 15.2917 15.2917ZM10 9.79167C7.81754 9.79167 6.04171 8.01583 6.04171 5.83333C6.04171 3.65083 7.81754 1.875 10 1.875C12.1825 1.875 13.9584 3.65083 13.9584 5.83333C13.9584 8.01583 12.1825 9.79167 10 9.79167ZM10 3.125C8.50671 3.125 7.29171 4.34 7.29171 5.83333C7.29171 7.32667 8.50671 8.54167 10 8.54167C11.4934 8.54167 12.7084 7.32667 12.7084 5.83333C12.7084 4.34 11.4934 3.125 10 3.125ZM9.76671 17.5C9.76671 17.155 9.48671 16.875 9.14171 16.875H5.00004C4.42587 16.875 3.95837 16.4075 3.95837 15.8333C3.95837 13.88 5.54754 12.2917 7.50004 12.2917H9.16671C9.51171 12.2917 9.79171 12.0117 9.79171 11.6667C9.79171 11.3217 9.51171 11.0417 9.16671 11.0417H7.50004C4.85837 11.0417 2.70837 13.1908 2.70837 15.8333C2.70837 17.0975 3.73587 18.125 5.00004 18.125H9.14171C9.48671 18.125 9.76671 17.845 9.76671 17.5Z" fill="#596A6E"/>
</svg>
