<svg width="20" height="20" viewBox="0 0 20 20" fill="none" xmlns="http://www.w3.org/2000/svg">
<g clip-path="url(#clip0_613_2697)">
<path d="M18.3811 5.14964C18.3708 4.60966 18.361 4.09956 18.361 3.60607C18.361 3.21945 18.0476 2.90602 17.6609 2.90602C14.667 2.90602 12.3876 2.04561 10.4876 0.19822C10.2157 -0.0661198 9.78321 -0.0660265 9.5115 0.19822C7.61165 2.04561 5.33257 2.90602 2.33887 2.90602C1.95225 2.90602 1.63881 3.21945 1.63881 3.60607C1.63881 4.09965 1.62911 4.60994 1.61875 5.15001C1.52279 10.1751 1.39137 17.0571 9.77024 19.9614C9.84454 19.9872 9.92201 20.0001 9.99948 20.0001C10.077 20.0001 10.1545 19.9872 10.2287 19.9614C18.6082 17.057 18.477 10.1748 18.3811 5.14964ZM9.99957 18.5571C2.81359 15.9467 2.92224 10.2282 3.01866 5.1767C3.02445 4.87354 3.03005 4.5797 3.03397 4.29165C5.83791 4.1733 8.08013 3.32362 9.99957 1.65153C11.9192 3.32362 14.1618 4.17339 16.9659 4.29165C16.9698 4.57961 16.9754 4.87326 16.9812 5.17624C17.0776 10.2279 17.1861 15.9466 9.99957 18.5571Z" fill="#596A6E"/>
<path d="M12.4103 7.56828L9.03149 10.9469L7.58966 9.50509C7.31627 9.23179 6.873 9.23179 6.5997 9.50509C6.3263 9.77858 6.3263 10.2218 6.5997 10.4951L8.53651 12.432C8.67316 12.5686 8.85237 12.6369 9.03149 12.6369C9.21061 12.6369 9.38982 12.5686 9.52647 12.432L13.4002 8.55834C13.6737 8.28495 13.6737 7.84167 13.4003 7.56837C13.127 7.29498 12.6837 7.29489 12.4103 7.56828Z" fill="#596A6E"/>
</g>
<defs>
<clipPath id="clip0_613_2697">
<rect width="20" height="20" fill="white"/>
</clipPath>
</defs>
</svg>
