<svg width="50" height="50" viewBox="0 0 50 50" fill="none" xmlns="http://www.w3.org/2000/svg">
<rect width="50" height="50" rx="8" fill="#F5585B" fill-opacity="0.1"/>
<path opacity="0.4" d="M23.1 23.9376C23.4107 24.0676 23.7329 24.1681 24.0625 24.2376V36.1376C23.8604 36.0855 23.6637 36.0144 23.475 35.9251L15.975 32.5876C15.3128 32.2928 14.7502 31.8124 14.3553 31.2046C13.9604 30.5967 13.7502 29.8875 13.75 29.1626V20.8376C13.751 20.5037 13.7972 20.1715 13.8875 19.8501L23.1 23.9376Z" fill="#F5585B"/>
<path opacity="0.4" d="M35.1624 18.2002L30.7999 20.1377L28.5249 21.1502L26.1499 22.2127C25.7878 22.3734 25.3961 22.4565 24.9999 22.4565C24.6038 22.4565 24.212 22.3734 23.8499 22.2127L14.8374 18.2002C15.1627 17.8674 15.5488 17.6 15.9749 17.4127L18.3374 16.3627L20.6124 15.3502L23.4749 14.0752C23.9542 13.8589 24.474 13.7471 24.9999 13.7471C25.5258 13.7471 26.0456 13.8589 26.5249 14.0752L34.0249 17.4127C34.451 17.6 34.8371 17.8674 35.1624 18.2002Z" fill="#F5585B"/>
<path opacity="0.4" d="M36.25 20.8376V29.1626C36.2498 29.8875 36.0396 30.5967 35.6447 31.2046C35.2498 31.8124 34.6872 32.2928 34.025 32.5876L26.525 35.9251C26.3363 36.0144 26.1396 36.0855 25.9375 36.1376V24.2376C26.2655 24.1623 26.5873 24.062 26.9 23.9376L29.85 22.6251L31.725 21.8001L36.1125 19.8501C36.2028 20.1715 36.249 20.5037 36.25 20.8376Z" fill="#F5585B"/>
<path d="M30.7999 20.1376L28.5249 21.1501L18.3374 16.3626L20.6124 15.3501L30.7999 20.1376Z" fill="#F5585B"/>
<path d="M31.7251 21.7998V24.8623C31.7251 25.1109 31.6263 25.3494 31.4505 25.5252C31.2747 25.701 31.0362 25.7998 30.7876 25.7998C30.539 25.7998 30.3005 25.701 30.1247 25.5252C29.9489 25.3494 29.8501 25.1109 29.8501 24.8623V22.6248L31.7251 21.7998Z" fill="#F5585B"/>
</svg>
